<svg width="42" height="42" viewBox="0 0 42 42" fill="none" xmlns="http://www.w3.org/2000/svg">
<path d="M29.75 7.25H36.75C37.2141 7.25 37.6592 7.43437 37.9874 7.76256C38.3156 8.09075 38.5 8.53587 38.5 9V37C38.5 37.4641 38.3156 37.9092 37.9874 38.2374C37.6592 38.5656 37.2141 38.75 36.75 38.75H5.25C4.78587 38.75 4.34075 38.5656 4.01256 38.2374C3.68437 37.9092 3.5 37.4641 3.5 37V9C3.5 8.53587 3.68437 8.09075 4.01256 7.76256C4.34075 7.43437 4.78587 7.25 5.25 7.25H12.25V3.75H15.75V7.25H26.25V3.75H29.75V7.25ZM7 17.75V35.25H35V17.75H7ZM10.5 21.25H14V24.75H10.5V21.25ZM19.25 21.25H22.75V24.75H19.25V21.25ZM28 21.25H31.5V24.75H28V21.25Z" fill="url(#paint0_linear_470_11)"/>
<g filter="url(#filter0_f_470_11)">
<path d="M29.75 7.25H36.75C37.2141 7.25 37.6592 7.43437 37.9874 7.76256C38.3156 8.09075 38.5 8.53587 38.5 9V37C38.5 37.4641 38.3156 37.9092 37.9874 38.2374C37.6592 38.5656 37.2141 38.75 36.75 38.75H5.25C4.78587 38.75 4.34075 38.5656 4.01256 38.2374C3.68437 37.9092 3.5 37.4641 3.5 37V9C3.5 8.53587 3.68437 8.09075 4.01256 7.76256C4.34075 7.43437 4.78587 7.25 5.25 7.25H12.25V3.75H15.75V7.25H26.25V3.75H29.75V7.25ZM7 17.75V35.25H35V17.75H7ZM10.5 21.25H14V24.75H10.5V21.25ZM19.25 21.25H22.75V24.75H19.25V21.25ZM28 21.25H31.5V24.75H28V21.25Z" fill="url(#paint1_linear_470_11)"/>
</g>
<defs>
<filter id="filter0_f_470_11" x="0.5" y="0.75" width="41" height="41" filterUnits="userSpaceOnUse" color-interpolation-filters="sRGB">
<feFlood flood-opacity="0" result="BackgroundImageFix"/>
<feBlend mode="normal" in="SourceGraphic" in2="BackgroundImageFix" result="shape"/>
<feGaussianBlur stdDeviation="1.5" result="effect1_foregroundBlur_470_11"/>
</filter>
<linearGradient id="paint0_linear_470_11" x1="20.8664" y1="3.75" x2="20.8664" y2="38.75" gradientUnits="userSpaceOnUse">
<stop stop-color="#8080FF"/>
<stop offset="1" stop-color="#AA99FF"/>
</linearGradient>
<linearGradient id="paint1_linear_470_11" x1="20.8664" y1="3.75" x2="20.8664" y2="38.75" gradientUnits="userSpaceOnUse">
<stop stop-color="#8080FF"/>
<stop offset="1" stop-color="#AA99FF"/>
</linearGradient>
</defs>
</svg>
