<svg width="50" height="40" viewBox="0 0 50 40" fill="none" xmlns="http://www.w3.org/2000/svg">
<path d="M39.578 6.67995C36.8186 5.40994 33.9054 4.50895 30.9131 4C30.5036 4.73587 30.1331 5.49298 29.8031 6.26816C26.6157 5.78531 23.3743 5.78531 20.1868 6.26816C19.8567 5.49306 19.4862 4.73596 19.0769 4C16.0826 4.51325 13.1676 5.41638 10.4053 6.68659C4.92163 14.8427 3.43508 22.7962 4.17835 30.6368C7.38975 33.022 10.9842 34.8361 14.8055 36C15.666 34.8366 16.4273 33.6024 17.0816 32.3105C15.8389 31.8439 14.6396 31.2683 13.4974 30.5903C13.798 30.3711 14.092 30.1453 14.3761 29.9261C17.6996 31.4974 21.3272 32.312 24.9999 32.312C28.6727 32.312 32.3002 31.4974 35.6238 29.9261C35.9112 30.1619 36.2052 30.3877 36.5025 30.5903C35.3581 31.2694 34.1565 31.8461 32.9117 32.3138C33.5651 33.6052 34.3265 34.8383 35.1877 36C39.0123 34.8407 42.6095 33.0276 45.8215 30.6401C46.6936 21.5475 44.3316 13.6671 39.578 6.67995ZM18.0231 25.8149C15.9518 25.8149 14.2406 23.9253 14.2406 21.6007C14.2406 19.276 15.8923 17.3699 18.0165 17.3699C20.1406 17.3699 21.8385 19.276 21.8022 21.6007C21.7659 23.9253 20.134 25.8149 18.0231 25.8149ZM31.9768 25.8149C29.9022 25.8149 28.1977 23.9253 28.1977 21.6007C28.1977 19.276 29.8494 17.3699 31.9768 17.3699C34.1042 17.3699 35.789 19.276 35.7526 21.6007C35.7163 23.9253 34.0877 25.8149 31.9768 25.8149Z" fill="url(#paint0_linear_471_12)"/>
<g filter="url(#filter0_f_471_12)">
<path d="M39.578 6.67995C36.8186 5.40994 33.9054 4.50895 30.9131 4C30.5036 4.73587 30.1331 5.49298 29.8031 6.26816C26.6157 5.78531 23.3743 5.78531 20.1868 6.26816C19.8567 5.49306 19.4862 4.73596 19.0769 4C16.0826 4.51325 13.1676 5.41638 10.4053 6.68659C4.92163 14.8427 3.43508 22.7962 4.17835 30.6368C7.38975 33.022 10.9842 34.8361 14.8055 36C15.666 34.8366 16.4273 33.6024 17.0816 32.3105C15.8389 31.8439 14.6396 31.2683 13.4974 30.5903C13.798 30.3711 14.092 30.1453 14.3761 29.9261C17.6996 31.4974 21.3272 32.312 24.9999 32.312C28.6727 32.312 32.3002 31.4974 35.6238 29.9261C35.9112 30.1619 36.2052 30.3877 36.5025 30.5903C35.3581 31.2694 34.1565 31.8461 32.9117 32.3138C33.5651 33.6052 34.3265 34.8383 35.1877 36C39.0123 34.8407 42.6095 33.0276 45.8215 30.6401C46.6936 21.5475 44.3316 13.6671 39.578 6.67995ZM18.0231 25.8149C15.9518 25.8149 14.2406 23.9253 14.2406 21.6007C14.2406 19.276 15.8923 17.3699 18.0165 17.3699C20.1406 17.3699 21.8385 19.276 21.8022 21.6007C21.7659 23.9253 20.134 25.8149 18.0231 25.8149ZM31.9768 25.8149C29.9022 25.8149 28.1977 23.9253 28.1977 21.6007C28.1977 19.276 29.8494 17.3699 31.9768 17.3699C34.1042 17.3699 35.789 19.276 35.7526 21.6007C35.7163 23.9253 34.0877 25.8149 31.9768 25.8149Z" fill="url(#paint1_linear_471_12)"/>
</g>
<defs>
<filter id="filter0_f_471_12" x="0" y="0" width="50" height="40" filterUnits="userSpaceOnUse" color-interpolation-filters="sRGB">
<feFlood flood-opacity="0" result="BackgroundImageFix"/>
<feBlend mode="normal" in="SourceGraphic" in2="BackgroundImageFix" result="shape"/>
<feGaussianBlur stdDeviation="2" result="effect1_foregroundBlur_471_12"/>
</filter>
<linearGradient id="paint0_linear_471_12" x1="24.8397" y1="4" x2="24.8397" y2="36" gradientUnits="userSpaceOnUse">
<stop stop-color="#8080FF"/>
<stop offset="1" stop-color="#AA99FF"/>
</linearGradient>
<linearGradient id="paint1_linear_471_12" x1="24.8397" y1="4" x2="24.8397" y2="36" gradientUnits="userSpaceOnUse">
<stop stop-color="#8080FF"/>
<stop offset="1" stop-color="#AA99FF"/>
</linearGradient>
</defs>
</svg>
