<svg width="205" height="37" viewBox="0 0 205 37" fill="none" xmlns="http://www.w3.org/2000/svg">
<path d="M11.9836 36.25C9.80764 36.25 7.8026 35.6645 5.96851 34.4936C4.13443 33.2902 2.6734 31.6801 1.58539 29.6635C0.528463 27.6469 0 25.4352 0 23.0283C0 20.6213 0.528463 18.4096 1.58539 16.393C2.6734 14.3439 4.13443 12.7176 5.96851 11.5141C7.8026 10.3107 9.80764 9.70895 11.9836 9.70895C13.9731 9.70895 15.5741 10.0993 16.7864 10.8799C17.9988 11.628 18.9469 12.7176 19.6308 14.1487V0H25.9257V35.6157H19.8173V31.4687C19.1023 32.9974 18.1231 34.1846 16.8797 35.0303C15.6673 35.8434 14.0353 36.25 11.9836 36.25ZM6.29491 22.9795C6.29491 24.2805 6.57469 25.5002 7.13423 26.6386C7.72486 27.7445 8.51755 28.639 9.51231 29.322C10.5382 29.9725 11.7039 30.2978 13.0095 30.2978C14.3462 30.2978 15.5275 29.9725 16.5533 29.322C17.6102 28.6715 18.4184 27.7933 18.978 26.6874C19.5375 25.5816 19.8173 24.3618 19.8173 23.0283C19.8173 21.6947 19.5375 20.475 18.978 19.3691C18.4184 18.2307 17.6102 17.3363 16.5533 16.6857C15.5275 16.0027 14.3462 15.6612 13.0095 15.6612C11.7039 15.6612 10.5382 16.0027 9.51231 16.6857C8.48648 17.3363 7.69378 18.2145 7.13423 19.3203C6.57469 20.4262 6.29491 21.6459 6.29491 22.9795ZM29.6659 10.2456H35.8675V13.9536C37.1422 11.0913 39.6135 9.66016 43.2815 9.66016C44.9911 9.66016 46.5299 10.083 47.8978 10.9287C49.2967 11.7418 50.3848 12.9127 51.1618 14.4415C52.0012 12.8477 53.058 11.6605 54.3326 10.8799C55.6382 10.0667 57.3169 9.66016 59.3685 9.66016C61.1095 9.66016 62.6792 10.0993 64.0781 10.9775C65.4769 11.8231 66.5804 13.0429 67.3887 14.6366C68.1971 16.1978 68.6011 18.0193 68.6011 20.1009V35.6157H62.3062V21.711C62.3062 19.5968 61.8708 18.0193 61.0006 16.9785C60.1303 15.9376 58.9489 15.4172 57.4567 15.4172C55.8714 15.4172 54.6433 15.8888 53.7731 16.8321C52.9337 17.7754 52.5141 19.4016 52.5141 21.711V35.6157H46.2192V21.711C46.2192 19.5968 45.7529 18.0193 44.8203 16.9785C43.8877 15.9376 42.6131 15.4172 40.9967 15.4172C39.5669 15.4172 38.3698 15.9539 37.4063 17.0273C36.4427 18.0681 35.9608 19.6293 35.9608 21.711V35.6157H29.6659V10.2456ZM67.635 1.46366H75.0956L80.3181 20.784C81.0018 23.3535 81.4372 25.3051 81.6237 26.6386C81.8725 24.6546 82.3231 22.703 82.9759 20.784L89.4573 1.46366H95.3326L101.814 20.784C102.498 22.768 102.98 24.7196 103.26 26.6386C103.446 25.0774 103.85 23.1258 104.472 20.784L109.694 1.46366H117.155L106.244 35.6157H100.369L93.7472 16.3442C93.1254 14.5228 92.6747 12.6525 92.395 10.7335C92.1152 12.6525 91.6646 14.5228 91.0427 16.3442L84.4214 35.6157H78.5462L67.635 1.46366ZM127.249 36.25C124.793 36.25 122.617 35.6645 120.721 34.4936C118.825 33.2902 117.348 31.6801 116.291 29.6635C115.234 27.6469 114.705 25.4189 114.705 22.9795C114.705 20.5726 115.249 18.3445 116.338 16.2954C117.426 14.2463 118.918 12.62 120.814 11.4166C122.741 10.2131 124.886 9.61137 127.249 9.61137C129.611 9.61137 131.725 10.2131 133.59 11.4166C135.486 12.62 136.948 14.2463 137.973 16.2954C139.03 18.312 139.559 20.54 139.559 22.9795C139.559 23.7926 139.496 24.5732 139.372 25.3213H121.234C121.607 26.8501 122.306 28.086 123.332 29.0293C124.389 29.94 125.694 30.3954 127.249 30.3954C128.554 30.3954 129.72 30.0863 130.746 29.4684C131.772 28.8178 132.58 27.9884 133.171 26.9801L138.067 30.8345C137.072 32.4608 135.611 33.778 133.683 34.7863C131.756 35.7621 129.611 36.25 127.249 36.25ZM133.217 20.3937C132.844 18.93 132.114 17.7103 131.026 16.7345C129.938 15.7587 128.648 15.2709 127.155 15.2709C125.694 15.2709 124.42 15.7425 123.332 16.6857C122.275 17.629 121.576 18.8649 121.234 20.3937H133.217ZM153.614 36.25C151.158 36.25 148.982 35.6645 147.086 34.4936C145.19 33.2902 143.713 31.6801 142.656 29.6635C141.599 27.6469 141.071 25.4189 141.071 22.9795C141.071 20.5726 141.615 18.3445 142.703 16.2954C143.791 14.2463 145.283 12.62 147.179 11.4166C149.107 10.2131 151.252 9.61137 153.614 9.61137C155.977 9.61137 158.09 10.2131 159.956 11.4166C161.852 12.62 163.313 14.2463 164.339 16.2954C165.396 18.312 165.924 20.54 165.924 22.9795C165.924 23.7926 165.862 24.5732 165.738 25.3213H147.599C147.972 26.8501 148.671 28.086 149.697 29.0293C150.754 29.94 152.06 30.3954 153.614 30.3954C154.92 30.3954 156.085 30.0863 157.111 29.4684C158.137 28.8178 158.945 27.9884 159.536 26.9801L164.432 30.8345C163.437 32.4608 161.976 33.778 160.049 34.7863C158.121 35.7621 155.977 36.25 153.614 36.25ZM159.583 20.3937C159.21 18.93 158.479 17.7103 157.391 16.7345C156.303 15.7587 155.013 15.2709 153.521 15.2709C152.06 15.2709 150.785 15.7425 149.697 16.6857C148.64 17.629 147.941 18.8649 147.599 20.3937H159.583ZM179.42 36.25C177.244 36.25 175.239 35.6645 173.405 34.4936C171.571 33.2902 170.11 31.6801 169.022 29.6635C167.965 27.6469 167.436 25.4352 167.436 23.0283C167.436 20.6213 167.965 18.4096 169.022 16.393C170.11 14.3439 171.571 12.7176 173.405 11.5141C175.239 10.3107 177.244 9.70895 179.42 9.70895C181.409 9.70895 183.01 10.0993 184.223 10.8799C185.435 11.628 186.383 12.7176 187.067 14.1487V0H193.362V35.6157H187.254V31.4687C186.539 32.9974 185.559 34.1846 184.316 35.0303C183.104 35.8434 181.472 36.25 179.42 36.25ZM173.731 22.9795C173.731 24.2805 174.011 25.5002 174.571 26.6386C175.161 27.7445 175.954 28.639 176.949 29.322C177.974 29.9725 179.14 30.2978 180.446 30.2978C181.782 30.2978 182.964 29.9725 183.99 29.322C185.046 28.6715 185.855 27.7933 186.414 26.6874C186.974 25.5816 187.254 24.3618 187.254 23.0283C187.254 21.6947 186.974 20.475 186.414 19.3691C185.855 18.2307 185.046 17.3363 183.99 16.6857C182.964 16.0027 181.782 15.6612 180.446 15.6612C179.14 15.6612 177.974 16.0027 176.949 16.6857C175.923 17.3363 175.13 18.2145 174.571 19.3203C174.011 20.4262 173.731 21.6459 173.731 22.9795ZM200.459 36.25C199.278 36.25 198.284 35.8272 197.475 34.9815C196.667 34.1358 196.263 33.1275 196.263 31.9566C196.263 30.7857 196.667 29.7936 197.475 28.9805C198.284 28.1348 199.278 27.712 200.459 27.712C201.641 27.712 202.62 28.1348 203.397 28.9805C204.205 29.7936 204.609 30.7857 204.609 31.9566C204.609 33.16 204.205 34.1846 203.397 35.0303C202.62 35.8434 201.641 36.25 200.459 36.25Z" fill="white"/>
</svg>
