<svg width="72" height="75" viewBox="0 0 72 75" fill="none" xmlns="http://www.w3.org/2000/svg">
<g filter="url(#filter0_d_464_12)">
<path fill-rule="evenodd" clip-rule="evenodd" d="M35.9894 3C28.3925 3.00406 21.0447 5.7785 15.2599 10.8272C9.47504 15.8759 5.6304 22.8697 4.41342 30.5579C3.19643 38.2462 4.68644 46.1276 8.61705 52.7929C12.5477 59.4581 18.6625 64.4727 25.8683 66.9397C27.458 67.244 28.0568 66.228 28.0568 65.3642C28.0568 64.5004 28.025 61.9958 28.0144 59.2576C19.112 61.2406 17.2309 55.384 17.2309 55.384C15.779 51.581 13.6805 50.5813 13.6805 50.5813C10.7767 48.5494 13.8978 48.5874 13.8978 48.5874C17.1143 48.821 18.8047 51.9721 18.8047 51.9721C21.6556 56.9867 26.2922 55.5361 28.1151 54.6886C28.4012 52.5643 29.2332 51.1192 30.1499 50.2988C23.0386 49.473 15.567 46.6587 15.567 34.087C15.5229 30.8266 16.703 27.6736 18.863 25.2803C18.5345 24.4545 17.4375 21.1187 19.1756 16.5877C19.1756 16.5877 21.8622 15.7075 27.9773 19.9506C33.2224 18.48 38.7564 18.48 44.0015 19.9506C50.1113 15.7075 52.7926 16.5877 52.7926 16.5877C54.5359 21.1078 53.4391 24.4436 53.1105 25.2803C55.2774 27.674 56.4599 30.8325 56.4118 34.0979C56.4118 46.6968 48.9243 49.473 41.8024 50.2825C42.947 51.3039 43.9697 53.2977 43.9697 56.3619C43.9697 60.7517 43.9326 64.2831 43.9326 65.3642C43.9326 66.2389 44.5102 67.2603 46.1317 66.9397C53.3383 64.4724 59.4538 59.457 63.3843 52.7906C67.3149 46.1241 68.8041 38.2416 67.5857 30.5526C66.3674 22.8636 62.5208 15.8698 56.7341 10.8219C50.9473 5.7741 43.5978 3.00149 36 3H35.9894Z" fill="url(#paint0_linear_464_12)"/>
</g>
<g filter="url(#filter1_f_464_12)">
<path fill-rule="evenodd" clip-rule="evenodd" d="M35.9894 3C28.3925 3.00406 21.0447 5.7785 15.2599 10.8272C9.47504 15.8759 5.6304 22.8697 4.41342 30.5579C3.19643 38.2462 4.68644 46.1276 8.61705 52.7929C12.5477 59.4581 18.6625 64.4727 25.8683 66.9397C27.458 67.244 28.0568 66.228 28.0568 65.3642C28.0568 64.5004 28.025 61.9958 28.0144 59.2576C19.112 61.2406 17.2309 55.384 17.2309 55.384C15.779 51.581 13.6805 50.5813 13.6805 50.5813C10.7767 48.5494 13.8978 48.5874 13.8978 48.5874C17.1143 48.821 18.8047 51.9721 18.8047 51.9721C21.6556 56.9867 26.2922 55.5361 28.1151 54.6886C28.4012 52.5643 29.2332 51.1192 30.1499 50.2988C23.0386 49.473 15.567 46.6587 15.567 34.087C15.5229 30.8266 16.703 27.6736 18.863 25.2803C18.5345 24.4545 17.4375 21.1187 19.1756 16.5877C19.1756 16.5877 21.8622 15.7075 27.9773 19.9506C33.2224 18.48 38.7564 18.48 44.0015 19.9506C50.1113 15.7075 52.7926 16.5877 52.7926 16.5877C54.5359 21.1078 53.4391 24.4436 53.1105 25.2803C55.2774 27.674 56.4599 30.8325 56.4118 34.0979C56.4118 46.6968 48.9243 49.473 41.8024 50.2825C42.947 51.3039 43.9697 53.2977 43.9697 56.3619C43.9697 60.7517 43.9326 64.2831 43.9326 65.3642C43.9326 66.2389 44.5102 67.2603 46.1317 66.9397C53.3383 64.4724 59.4538 59.457 63.3843 52.7906C67.3149 46.1241 68.8041 38.2416 67.5857 30.5526C66.3674 22.8636 62.5208 15.8698 56.7341 10.8219C50.9473 5.7741 43.5978 3.00149 36 3H35.9894Z" fill="url(#paint1_linear_464_12)"/>
</g>
<defs>
<filter id="filter0_d_464_12" x="0" y="3" width="72" height="72" filterUnits="userSpaceOnUse" color-interpolation-filters="sRGB">
<feFlood flood-opacity="0" result="BackgroundImageFix"/>
<feColorMatrix in="SourceAlpha" type="matrix" values="0 0 0 0 0 0 0 0 0 0 0 0 0 0 0 0 0 0 127 0" result="hardAlpha"/>
<feOffset dy="4"/>
<feGaussianBlur stdDeviation="2"/>
<feComposite in2="hardAlpha" operator="out"/>
<feColorMatrix type="matrix" values="0 0 0 0 0 0 0 0 0 0 0 0 0 0 0 0 0 0 0.25 0"/>
<feBlend mode="normal" in2="BackgroundImageFix" result="effect1_dropShadow_464_12"/>
<feBlend mode="normal" in="SourceGraphic" in2="effect1_dropShadow_464_12" result="shape"/>
</filter>
<filter id="filter1_f_464_12" x="1" y="0" width="70" height="70" filterUnits="userSpaceOnUse" color-interpolation-filters="sRGB">
<feFlood flood-opacity="0" result="BackgroundImageFix"/>
<feBlend mode="normal" in="SourceGraphic" in2="BackgroundImageFix" result="shape"/>
<feGaussianBlur stdDeviation="1.5" result="effect1_foregroundBlur_464_12"/>
</filter>
<linearGradient id="paint0_linear_464_12" x1="4" y1="35" x2="68" y2="35" gradientUnits="userSpaceOnUse">
<stop stop-color="#CCFFD4"/>
<stop offset="1" stop-color="#E6FFEE"/>
</linearGradient>
<linearGradient id="paint1_linear_464_12" x1="4" y1="35" x2="68" y2="35" gradientUnits="userSpaceOnUse">
<stop stop-color="#CCFFD4"/>
<stop offset="1" stop-color="#E6FFEE"/>
</linearGradient>
</defs>
</svg>
