<svg width="182" height="39" viewBox="0 0 182 39" fill="none" xmlns="http://www.w3.org/2000/svg">
<g clip-path="url(#clip0_405_35)">
<path d="M114.225 32.1471C114.383 32.3962 114.555 32.6354 114.74 32.8636L114.225 32.1471ZM114.225 32.1471C114.383 32.3962 114.555 32.6354 114.74 32.8636L114.225 32.1471ZM114.225 32.1471C114.383 32.3962 114.555 32.6354 114.74 32.8636L114.225 32.1471ZM40.4652 34.0206V34.0399C40.4937 34.0399 40.5219 34.0399 40.5507 34.0399C40.707 34.0399 40.8622 34.0329 41.0152 34.0197L40.4652 34.0206ZM40.0859 34.0206C40.2114 34.0318 40.3378 34.0382 40.4652 34.0399C40.4937 34.0399 40.5219 34.0399 40.5507 34.0399C40.707 34.0399 40.8622 34.0329 41.0152 34.0197L40.0859 34.0206ZM40.0859 34.0206C40.2114 34.0318 40.3378 34.0382 40.4652 34.0399C40.4937 34.0399 40.5219 34.0399 40.5507 34.0399C40.707 34.0399 40.8622 34.0329 41.0152 34.0197L40.0859 34.0206ZM40.0859 34.0206C40.2114 34.0318 40.3378 34.0382 40.4652 34.0399C40.4937 34.0399 40.5219 34.0399 40.5507 34.0399C40.707 34.0399 40.8622 34.0329 41.0152 34.0197L40.0859 34.0206ZM40.0859 34.0206C40.2114 34.0318 40.3378 34.0382 40.4652 34.0399C40.4937 34.0399 40.5219 34.0399 40.5507 34.0399C40.707 34.0399 40.8622 34.0329 41.0152 34.0197L40.0859 34.0206ZM40.0859 34.0206C40.2114 34.0318 40.3378 34.0382 40.4652 34.0399C40.4937 34.0399 40.5219 34.0399 40.5507 34.0399C40.707 34.0399 40.8622 34.0329 41.0152 34.0197L40.0859 34.0206ZM40.0859 34.0206C40.2114 34.0318 40.3378 34.0382 40.4652 34.0399C40.4937 34.0399 40.5219 34.0399 40.5507 34.0399C40.707 34.0399 40.8622 34.0329 41.0152 34.0197L40.0859 34.0206ZM40.0859 34.0206C40.2114 34.0318 40.3378 34.0382 40.4652 34.0399C40.4937 34.0399 40.5219 34.0399 40.5507 34.0399C40.707 34.0399 40.8622 34.0329 41.0152 34.0197L40.0859 34.0206ZM40.0859 34.0206C40.2114 34.0318 40.3378 34.0382 40.4652 34.0399C40.4937 34.0399 40.5219 34.0399 40.5507 34.0399C40.707 34.0399 40.8622 34.0329 41.0152 34.0197L40.0859 34.0206ZM40.0859 34.0206C40.2114 34.0318 40.3378 34.0382 40.4652 34.0399C40.4937 34.0399 40.5219 34.0399 40.5507 34.0399C40.707 34.0399 40.8622 34.0329 41.0152 34.0197L40.0859 34.0206ZM40.0859 34.0206C40.2114 34.0318 40.3378 34.0382 40.4652 34.0399C40.4937 34.0399 40.5219 34.0399 40.5507 34.0399C40.707 34.0399 40.8622 34.0329 41.0152 34.0197L40.0859 34.0206ZM140.999 11.9519C141.054 11.8822 141.106 11.81 141.155 11.7352L140.999 11.9519ZM126.491 32.1837L126.026 32.8334C126.192 32.6257 126.348 32.4088 126.491 32.1837ZM114.737 32.8636L114.222 32.1471C114.381 32.3962 114.553 32.6354 114.739 32.8636H114.737ZM40.0835 34.0206C40.2089 34.0318 40.3354 34.0382 40.4628 34.0399C40.4913 34.0399 40.5195 34.0399 40.5483 34.0399C40.7046 34.0399 40.8597 34.0329 41.0127 34.0197L40.0835 34.0206ZM126.025 32.8334C126.191 32.6257 126.347 32.4089 126.491 32.1837L126.025 32.8334ZM140.996 11.9519C141.051 11.8822 141.103 11.81 141.152 11.7352L140.996 11.9519ZM40.0859 34.0206C40.2114 34.0318 40.3378 34.0382 40.4652 34.0399C40.4937 34.0399 40.5219 34.0399 40.5507 34.0399C40.707 34.0399 40.8622 34.0329 41.0152 34.0197L40.0859 34.0206ZM40.0859 34.0206C40.2114 34.0318 40.3378 34.0382 40.4652 34.0399C40.4937 34.0399 40.5219 34.0399 40.5507 34.0399C40.707 34.0399 40.8622 34.0329 41.0152 34.0197L40.0859 34.0206ZM40.0859 34.0206C40.2114 34.0318 40.3378 34.0382 40.4652 34.0399C40.4937 34.0399 40.5219 34.0399 40.5507 34.0399C40.707 34.0399 40.8622 34.0329 41.0152 34.0197L40.0859 34.0206ZM40.0859 34.0206C40.2114 34.0318 40.3378 34.0382 40.4652 34.0399C40.4937 34.0399 40.5219 34.0399 40.5507 34.0399C40.707 34.0399 40.8622 34.0329 41.0152 34.0197L40.0859 34.0206ZM181.417 29.5546C181.353 29.4515 181.282 29.3527 181.205 29.2589L181.203 29.2561L167.03 9.48727C166.448 8.52826 165.676 7.70974 164.764 7.08665C163.853 6.46357 162.824 6.05034 161.746 5.87471C160.944 5.74412 160.127 5.74412 159.325 5.87471C157.609 6.15444 156.035 7.03284 154.863 8.36549C154.523 8.7516 154.221 9.17214 153.963 9.6208L139.958 29.1528V29.155C139.904 29.2227 139.854 29.2935 139.806 29.3663C139.806 29.3673 139.806 29.3683 139.805 29.3691C139.486 29.857 139.316 30.4333 139.317 31.0231C139.317 32.6794 140.646 34.0216 142.286 34.0216C142.745 34.0238 143.198 33.9164 143.611 33.7076C144.023 33.4988 144.384 33.1942 144.665 32.8173C144.68 32.7981 144.694 32.7786 144.707 32.759L154.775 18.7169L158.605 13.3763C158.606 13.3741 158.607 13.3721 158.609 13.3704L158.8 13.1036C159.031 12.8316 159.314 12.6138 159.632 12.4649C159.95 12.316 160.295 12.2394 160.644 12.2402C160.993 12.2409 161.337 12.3191 161.655 12.4694C161.972 12.6197 162.255 12.8387 162.484 13.1118L162.672 13.3735L166.408 18.5837L176.517 32.6844C176.518 32.687 176.52 32.6895 176.522 32.6916C176.578 32.7792 176.638 32.8633 176.703 32.9436C176.703 32.9436 176.704 32.9436 176.705 32.9458C176.955 33.2554 177.263 33.5099 177.609 33.6945C177.955 33.8792 178.333 33.9901 178.721 34.021C178.8 34.0279 178.881 34.0314 178.963 34.0314C179.045 34.0314 179.125 34.0279 179.205 34.021C180.695 33.8978 181.866 32.6416 181.866 31.1101C181.865 30.5572 181.709 30.0166 181.417 29.5546ZM40.0859 34.0206C40.2114 34.0318 40.3378 34.0382 40.4652 34.0399C40.4937 34.0399 40.5219 34.0399 40.5507 34.0399C40.707 34.0399 40.8622 34.0329 41.0152 34.0197L40.0859 34.0206ZM40.0859 34.0206C40.2114 34.0318 40.3378 34.0382 40.4652 34.0399C40.4937 34.0399 40.5219 34.0399 40.5507 34.0399C40.707 34.0399 40.8622 34.0329 41.0152 34.0197L40.0859 34.0206ZM40.0859 34.0206C40.2114 34.0318 40.3378 34.0382 40.4652 34.0399C40.4937 34.0399 40.5219 34.0399 40.5507 34.0399C40.707 34.0399 40.8622 34.0329 41.0152 34.0197L40.0859 34.0206ZM40.0859 34.0206C40.2114 34.0318 40.3378 34.0382 40.4652 34.0399C40.4937 34.0399 40.5219 34.0399 40.5507 34.0399C40.707 34.0399 40.8622 34.0329 41.0152 34.0197L40.0859 34.0206ZM40.0859 34.0206C40.2114 34.0318 40.3378 34.0382 40.4652 34.0399C40.4937 34.0399 40.5219 34.0399 40.5507 34.0399C40.707 34.0399 40.8622 34.0329 41.0152 34.0197L40.0859 34.0206ZM40.0859 34.0206C40.2114 34.0318 40.3378 34.0382 40.4652 34.0399C40.4937 34.0399 40.5219 34.0399 40.5507 34.0399C40.707 34.0399 40.8622 34.0329 41.0152 34.0197L40.0859 34.0206ZM40.0859 34.0206C40.2114 34.0318 40.3378 34.0382 40.4652 34.0399V34.0206H40.0859ZM40.0859 34.0206C40.2114 34.0318 40.3378 34.0382 40.4652 34.0399C40.4937 34.0399 40.5219 34.0399 40.5507 34.0399C40.707 34.0399 40.8622 34.0329 41.0152 34.0197L40.0859 34.0206ZM40.0859 34.0206C40.2114 34.0318 40.3378 34.0382 40.4652 34.0399C40.4937 34.0399 40.5219 34.0399 40.5507 34.0399C40.707 34.0399 40.8622 34.0329 41.0152 34.0197L40.0859 34.0206ZM40.0859 34.0206C40.2114 34.0318 40.3378 34.0382 40.4652 34.0399C40.4937 34.0399 40.5219 34.0399 40.5507 34.0399C40.707 34.0399 40.8622 34.0329 41.0152 34.0197L40.0859 34.0206ZM40.0859 34.0206C40.2114 34.0318 40.3378 34.0382 40.4652 34.0399C40.4937 34.0399 40.5219 34.0399 40.5507 34.0399C40.707 34.0399 40.8622 34.0329 41.0152 34.0197L40.0859 34.0206ZM40.0859 34.0206C40.2114 34.0318 40.3378 34.0382 40.4652 34.0399C40.4937 34.0399 40.5219 34.0399 40.5507 34.0399C40.707 34.0399 40.8622 34.0329 41.0152 34.0197L40.0859 34.0206ZM40.0859 34.0206C40.2114 34.0318 40.3378 34.0382 40.4652 34.0399C40.4937 34.0399 40.5219 34.0399 40.5507 34.0399C40.707 34.0399 40.8622 34.0329 41.0152 34.0197L40.0859 34.0206ZM40.0859 34.0206C40.2114 34.0318 40.3378 34.0382 40.4652 34.0399C40.4937 34.0399 40.5219 34.0399 40.5507 34.0399C40.707 34.0399 40.8622 34.0329 41.0152 34.0197L40.0859 34.0206ZM40.0859 34.0206C40.2114 34.0318 40.3378 34.0382 40.4652 34.0399C40.4937 34.0399 40.5219 34.0399 40.5507 34.0399C40.707 34.0399 40.8622 34.0329 41.0152 34.0197L40.0859 34.0206ZM40.0859 34.0206C40.2114 34.0318 40.3378 34.0382 40.4652 34.0399C40.4937 34.0399 40.5219 34.0399 40.5507 34.0399C40.707 34.0399 40.8622 34.0329 41.0152 34.0197L40.0859 34.0206ZM40.0859 34.0206C40.2114 34.0318 40.3378 34.0382 40.4652 34.0399C40.4937 34.0399 40.5219 34.0399 40.5507 34.0399C40.707 34.0399 40.8622 34.0329 41.0152 34.0197L40.0859 34.0206ZM40.0859 34.0206C40.2114 34.0318 40.3378 34.0382 40.4652 34.0399C40.4937 34.0399 40.5219 34.0399 40.5507 34.0399C40.707 34.0399 40.8622 34.0329 41.0152 34.0197L40.0859 34.0206ZM140.999 11.9519C141.054 11.8822 141.106 11.81 141.155 11.7352L140.999 11.9519ZM126.027 32.8334C126.193 32.6257 126.348 32.4088 126.491 32.1837L126.027 32.8334ZM40.0859 34.0206C40.2114 34.0318 40.3378 34.0382 40.4652 34.0399C40.4937 34.0399 40.5219 34.0399 40.5507 34.0399C40.707 34.0399 40.8622 34.0329 41.0152 34.0197L40.0859 34.0206ZM40.0859 34.0206C40.2114 34.0318 40.3378 34.0382 40.4652 34.0399C40.4937 34.0399 40.5219 34.0399 40.5507 34.0399C40.707 34.0399 40.8622 34.0329 41.0152 34.0197L40.0859 34.0206ZM40.0859 34.0206C40.2114 34.0318 40.3378 34.0382 40.4652 34.0399C40.4937 34.0399 40.5219 34.0399 40.5507 34.0399C40.707 34.0399 40.8622 34.0329 41.0152 34.0197L40.0859 34.0206ZM40.0859 34.0206C40.2114 34.0318 40.3378 34.0382 40.4652 34.0399C40.4937 34.0399 40.5219 34.0399 40.5507 34.0399C40.707 34.0399 40.8622 34.0329 41.0152 34.0197L40.0859 34.0206ZM40.0859 34.0206C40.2114 34.0318 40.3378 34.0382 40.4652 34.0399C40.4937 34.0399 40.5219 34.0399 40.5507 34.0399C40.707 34.0399 40.8622 34.0329 41.0152 34.0197L40.0859 34.0206ZM40.0859 34.0206C40.2114 34.0318 40.3378 34.0382 40.4652 34.0399C40.4937 34.0399 40.5219 34.0399 40.5507 34.0399C40.707 34.0399 40.8622 34.0329 41.0152 34.0197L40.0859 34.0206ZM40.0859 34.0206C40.2114 34.0318 40.3378 34.0382 40.4652 34.0399C40.4937 34.0399 40.5219 34.0399 40.5507 34.0399C40.707 34.0399 40.8622 34.0329 41.0152 34.0197L40.0859 34.0206ZM40.0859 34.0206C40.2114 34.0318 40.3378 34.0382 40.4652 34.0399C40.4937 34.0399 40.5219 34.0399 40.5507 34.0399C40.707 34.0399 40.8622 34.0329 41.0152 34.0197L40.0859 34.0206ZM40.0859 34.0206C40.2114 34.0318 40.3378 34.0382 40.4652 34.0399C40.4937 34.0399 40.5219 34.0399 40.5507 34.0399C40.707 34.0399 40.8622 34.0329 41.0152 34.0197L40.0859 34.0206ZM40.0859 34.0206C40.2114 34.0318 40.3378 34.0382 40.4652 34.0399C40.4937 34.0399 40.5219 34.0399 40.5507 34.0399C40.707 34.0399 40.8622 34.0329 41.0152 34.0197L40.0859 34.0206ZM40.0859 34.0206C40.2114 34.0318 40.3378 34.0382 40.4652 34.0399C40.4937 34.0399 40.5219 34.0399 40.5507 34.0399C40.707 34.0399 40.8622 34.0329 41.0152 34.0197L40.0859 34.0206ZM40.0859 34.0206C40.2114 34.0318 40.3378 34.0382 40.4652 34.0399C40.4937 34.0399 40.5219 34.0399 40.5507 34.0399C40.707 34.0399 40.8622 34.0329 41.0152 34.0197L40.0859 34.0206ZM114.225 32.1471C114.383 32.3962 114.555 32.6354 114.74 32.8636L114.225 32.1471ZM114.225 32.1471C114.383 32.3962 114.555 32.6354 114.74 32.8636L114.225 32.1471ZM114.225 32.1471C114.383 32.3962 114.555 32.6354 114.74 32.8636L114.225 32.1471ZM114.225 32.1471C114.383 32.3962 114.555 32.6354 114.74 32.8636L114.225 32.1471Z" fill="white"/>
<path d="M141.644 10.0853C141.645 10.6712 141.476 11.2439 141.16 11.7286C141.158 11.731 141.157 11.7332 141.155 11.7352L140.999 11.9519L126.495 32.1811L126.029 32.8308C126.029 32.8308 126.029 32.8308 126.027 32.833C125.675 33.2724 125.278 33.6699 124.842 34.0181C123.339 35.2149 121.45 35.7625 119.568 35.547C117.686 35.3314 115.957 34.3693 114.741 32.8611L114.226 32.1446L99.6566 11.8291C99.6421 11.8089 99.6263 11.7888 99.613 11.7683C99.2674 11.2778 99.0813 10.6857 99.0815 10.0778C99.0815 8.46343 100.36 7.1508 101.976 7.1508C102.401 7.14874 102.82 7.24281 103.206 7.42648C103.592 7.61015 103.935 7.879 104.21 8.21432L104.214 8.21811C104.288 8.30942 104.356 8.40522 104.419 8.505C104.419 8.505 104.419 8.50689 104.421 8.50784L114.789 22.9691L118.118 27.614L118.435 28.0549C118.671 28.3154 118.956 28.523 119.273 28.665C119.589 28.8069 119.93 28.8803 120.275 28.8807C120.619 28.881 120.96 28.8082 121.277 28.6669C121.594 28.5255 121.879 28.3184 122.116 28.0584C122.116 28.0565 122.119 28.0552 122.119 28.054L122.437 27.6112C122.437 27.6106 122.437 27.6099 122.437 27.6093L125.849 22.8507L136.247 8.351C136.775 7.59517 137.641 7.09978 138.635 7.0875H138.713C140.336 7.10829 141.644 8.44264 141.644 10.0853Z" fill="white"/>
<path d="M46.1266 28.2407C46.1266 28.2908 46.1266 28.3409 46.1266 28.3903C46.092 29.8185 45.5512 31.183 44.6081 32.2221C43.6649 33.2612 42.3858 33.9017 41.0162 34.0206H40.087C39.2502 33.9496 38.4399 33.6816 37.7174 33.2371L37.7071 33.2308L37.6044 33.1656H37.6023L10.4627 16.0362L8.41241 14.7425C8.41025 14.7407 8.40792 14.7391 8.40544 14.7378L8.30879 14.6767L8.30273 14.6729C8.04785 14.5259 7.76104 14.449 7.46954 14.4496C6.53849 14.4496 5.78316 15.2171 5.78316 16.1641V31.0993C5.78316 32.7127 4.51944 34.0206 2.96092 34.0206C1.42603 34.0206 0.177453 32.7534 0.138672 31.1746C0.138672 31.1497 0.138672 31.1242 0.138672 31.0993C0.138672 31.0745 0.138672 31.0486 0.138672 31.0238V12.9824C0.138672 12.9575 0.138672 12.9323 0.138672 12.9074C0.138672 12.8825 0.138672 12.8573 0.138672 12.8325C0.149707 11.8353 0.410783 10.8583 0.896118 9.99808C1.39178 9.1197 2.1001 8.39156 2.95059 7.88611C3.80108 7.38066 4.76409 7.11553 5.74378 7.1171H5.78437C6.78291 7.12229 7.76193 7.405 8.61995 7.93592L8.71084 7.99261L8.71509 7.99513L8.71902 7.99765L8.72448 8.00111L35.8489 25.121L37.8641 26.3927C37.878 26.4015 37.8913 26.4104 37.9059 26.4189C38.1703 26.5822 38.4724 26.6681 38.78 26.6673C39.7116 26.6673 40.4663 25.8995 40.4663 24.9525V10.0327C40.4663 10.0289 40.4663 10.0252 40.4663 10.0214C40.4663 10.0176 40.4663 10.0116 40.4663 10.0066C40.4663 9.99399 40.4663 9.98171 40.4663 9.9688C40.4851 8.39415 41.7085 7.12025 43.2256 7.08845H43.2843H43.2983C44.8113 7.08845 46.0475 8.33337 46.1266 9.90109V28.0921C46.1263 28.1409 46.1266 28.1907 46.1266 28.2407Z" fill="white"/>
<path d="M87.6417 20.1473C87.3805 14.6046 84.6407 9.72031 80.5201 6.60534C79.9123 6.14562 79.277 5.72655 78.618 5.35066C76.6008 4.19899 74.3893 3.46126 72.104 3.17765C71.498 3.20914 70.8012 3.11466 69.9107 3.04128H69.9074C67.3284 3.03724 64.7785 3.60633 62.4284 4.71041C62.4273 4.70997 62.4261 4.70997 62.425 4.71041C62.3529 4.74473 62.2811 4.77906 62.2093 4.81434L62.016 4.90882C61.9518 4.94031 61.8876 4.974 61.8239 5.00707C61.7603 5.04014 61.6964 5.07384 61.6331 5.10754C61.577 5.13903 61.5204 5.16832 61.464 5.19918C61.431 5.21713 61.398 5.2354 61.3649 5.25429C58.7144 6.72528 56.469 8.87528 54.8415 11.5006C54.4654 12.109 54.1255 12.7408 53.8238 13.3924C53.6303 13.81 53.4523 14.2363 53.2899 14.6713C51.8163 18.6353 51.7705 23.0193 53.1609 27.0156C55.5983 33.9986 62.1751 39.0016 69.9062 39.0016C71.2723 39.0028 72.6341 38.8443 73.9661 38.5292C81.8169 36.6711 87.6638 29.5379 87.6638 21.0222C87.663 20.7281 87.6556 20.4364 87.6417 20.1473ZM71.8225 30.3621C70.5729 30.6421 69.2773 30.611 68.0414 30.2714C68.0674 30.0875 68.0959 29.9042 68.1265 29.7228C68.1853 29.372 68.2513 29.0277 68.3183 28.6977C68.5346 27.6269 68.757 26.708 68.757 26.1997C68.757 23.3171 67.469 23.1971 67.469 23.1971L67.2309 23.1826L65.6148 23.2796L64.2741 23.3596C62.4051 23.3735 61.9057 20.5212 61.9057 20.5212C61.9056 20.52 61.9056 20.5188 61.9057 20.5177C62.4357 16.165 65.909 12.8044 70.114 12.8044C74.6863 12.8044 78.3929 16.7773 78.3929 21.6779C78.3917 25.9506 75.5743 29.5178 71.8225 30.3621Z" fill="url(#paint0_linear_405_35)"/>
<path d="M83.6117 3.77378L80.5213 6.60343L78.1481 8.77645C78.1481 8.77645 66.3755 10.0765 66.294 10.0047C66.2125 9.93287 62.4626 15.4167 62.4626 15.4167L53.8237 13.3908C54.1255 12.7392 54.4654 12.1074 54.8414 11.499C56.4688 8.8743 58.7137 6.72477 61.3637 5.25395C61.3967 5.23506 61.4297 5.21679 61.4627 5.19884C61.5191 5.16735 61.5757 5.13743 61.6318 5.1072C61.6951 5.0735 61.7587 5.0398 61.8227 5.00673C61.8866 4.97366 61.9505 4.94123 62.0148 4.90847L62.2081 4.814C62.2799 4.77872 62.3517 4.74439 62.4238 4.71007C62.4248 4.70963 62.426 4.70963 62.4271 4.71007C66.5073 2.78301 69.9089 3.04094 69.9089 3.04094C70.7987 3.11306 71.4962 3.20754 72.1021 3.17731C72.9738 3.13416 73.6555 2.83088 74.4481 1.83287C75.5176 0.484025 76.4123 0.142636 77.69 0.0100508C79.2754 -0.154973 78.8543 1.81114 78.7777 2.26338C78.7777 2.26338 78.6674 3.11369 79.0682 3.51176C79.7284 4.16461 81.8974 3.2384 81.8974 3.2384C82.7458 3.04944 83.1754 3.21509 83.3926 3.41067C83.585 3.58104 83.6117 3.77378 83.6117 3.77378Z" fill="url(#paint1_linear_405_35)"/>
<path d="M96.9471 5.12106C96.8656 6.88026 94.8196 7.82348 94.8196 7.82348C92.4133 9.01769 90.1907 10.6286 90.1907 10.6286C85.6402 13.4629 90.4831 15.2631 91.0336 16.3864C91.5841 17.5098 90.6158 18.241 90.6158 18.241C90.3446 18.5131 89.5059 18.9704 88.7906 19.4063C88.5949 19.526 88.1656 19.7977 87.6414 20.147C86.8491 20.6751 85.8405 21.3806 85.1 22.0026C83.933 22.9836 82.6826 24.2364 82.1308 25.0621C80.9835 26.775 78.9429 28.7266 76.0167 29.6541C73.8313 30.347 72.4052 30.3863 71.8232 30.3618C75.575 29.5174 78.3924 25.9502 78.3924 21.6776C78.3924 16.7769 74.6857 12.8041 70.1135 12.8041C65.9085 12.8041 62.4351 16.1647 61.9052 20.5174C61.9051 20.5185 61.9051 20.5197 61.9052 20.5208C61.9052 20.5208 62.4045 23.3731 64.2736 23.3593L65.6143 23.2793L67.2304 23.1823L67.4685 23.1968C67.4685 23.1968 68.7565 23.3168 68.7565 26.1993C68.7565 26.7076 68.5341 27.6278 68.3177 28.6974C68.2508 29.0274 68.1847 29.3716 68.126 29.7224L65.9033 29.3203L53.1606 27.0156C51.7703 23.02 51.8157 18.6368 53.2885 14.6732C53.4501 14.2386 53.628 13.8123 53.8223 13.3943C54.1241 12.7427 54.464 12.1109 54.84 11.5025C59.9761 7.89622 63.7476 8.16423 69.3582 7.69782C72.2028 7.46036 75.6335 6.44282 78.6178 5.35159C80.4614 4.67701 82.1348 3.97503 83.394 3.41193C84.648 2.85104 85.4915 2.42777 85.6845 2.30716C86.3847 1.86909 87.8935 1.31796 87.8935 1.31796C90.517 0.357112 90.2843 2.38873 90.2843 2.38873C90.3304 3.30013 88.7997 4.06321 88.7997 4.06321C85.7463 5.99184 86.628 7.64522 87.3827 7.64522C88.1374 7.64522 88.3104 7.48775 89.3196 6.99867C90.3288 6.50958 92.3833 4.57182 92.3833 4.57182C92.3988 4.56647 93.7955 3.44846 94.8047 3.44846C96.8859 3.44657 96.9471 5.12106 96.9471 5.12106Z" fill="url(#paint2_linear_405_35)" stroke="#2E3192" stroke-width="0.2" stroke-miterlimit="10"/>
<path d="M73.9649 38.5276C72.6329 38.8427 71.271 39.0012 69.905 39C62.1739 39 55.5971 33.997 53.1597 27.0141C51.7693 23.0184 51.8147 18.6352 53.2875 14.6716C53.3202 14.9179 53.7938 18.2524 55.7701 19.1912C57.6919 20.1045 59.2365 19.1912 59.2365 19.1912C59.2365 19.1912 61.2037 18.4461 61.9027 20.5177C61.9026 20.5188 61.9026 20.52 61.9027 20.5211C61.9027 20.5211 62.402 23.3735 64.2711 23.3596L65.6118 23.2796L67.2279 23.1826L67.466 23.1971C67.466 23.1971 68.754 23.3171 68.754 26.1996C68.754 26.7079 68.5316 27.6282 68.3152 28.6977C68.2483 29.0277 68.1822 29.3719 68.1235 29.7228C68.0932 29.9042 68.0629 30.0875 68.0383 30.2714C67.7869 32.0715 67.8111 33.9365 68.9815 34.8615C68.9815 34.8615 69.4778 35.6334 71.1396 35.5909C71.1396 35.5909 73.1481 35.3348 73.2399 36.9882C73.2989 37.9963 73.605 38.2555 73.9649 38.5276Z" fill="url(#paint3_linear_405_35)"/>
</g>
<defs>
<linearGradient id="paint0_linear_405_35" x1="57.5119" y1="8.13685" x2="83.2593" y2="32.9071" gradientUnits="userSpaceOnUse">
<stop offset="0.54" stop-color="#1D6179"/>
<stop offset="0.63" stop-color="#205F7D"/>
<stop offset="0.71" stop-color="#285788"/>
<stop offset="0.78" stop-color="#354C9A"/>
<stop offset="1" stop-color="#244E81"/>
</linearGradient>
<linearGradient id="paint1_linear_405_35" x1="53.8225" y1="7.70915" x2="83.6117" y2="7.70915" gradientUnits="userSpaceOnUse">
<stop stop-color="#628CC8"/>
<stop offset="0.63" stop-color="#34A5DD"/>
<stop offset="1" stop-color="#2174B2"/>
</linearGradient>
<linearGradient id="paint2_linear_405_35" x1="57.1069" y1="31.1163" x2="91.0735" y2="-1.5612" gradientUnits="userSpaceOnUse">
<stop offset="0.22" stop-color="#3851A2"/>
<stop offset="0.27" stop-color="#3465AF"/>
<stop offset="0.38" stop-color="#2C8DC8"/>
<stop offset="0.49" stop-color="#26A9DA"/>
<stop offset="0.58" stop-color="#22BBE5"/>
<stop offset="0.65" stop-color="#21C1E9"/>
<stop offset="0.68" stop-color="#2EC2E3"/>
<stop offset="0.74" stop-color="#45C4DA"/>
<stop offset="0.81" stop-color="#55C6D3"/>
<stop offset="0.9" stop-color="#5FC7CE"/>
<stop offset="1" stop-color="#62C7CD"/>
</linearGradient>
<linearGradient id="paint3_linear_405_35" x1="52.7561" y1="15.0889" x2="72.1987" y2="39.9109" gradientUnits="userSpaceOnUse">
<stop stop-color="#4AC5DB"/>
<stop offset="0.16" stop-color="#2EC4EC"/>
<stop offset="0.35" stop-color="#2EA7DF"/>
<stop offset="0.49" stop-color="#3A98D4"/>
<stop offset="0.82" stop-color="#507BBE"/>
<stop offset="1" stop-color="#5970B6"/>
</linearGradient>
<clipPath id="clip0_405_35">
<rect width="181.724" height="39" fill="white" transform="translate(0.137695)"/>
</clipPath>
</defs>
</svg>
