<svg width="264" height="175" viewBox="0 0 264 175" fill="none" xmlns="http://www.w3.org/2000/svg">
<path d="M39.9047 21.5648C39.6883 20.9291 39.1215 20.4864 38.3885 20.3802C38.0429 20.3301 37.6471 20.3515 37.1786 20.4451C36.3622 20.6085 35.7565 20.6707 35.3144 20.6828C36.983 17.9503 38.3398 14.8343 39.1208 11.9011C40.3839 7.15814 39.7089 4.99744 38.9202 4.02012C36.833 1.43324 33.7878 0.0435516 30.114 0.00102951C28.1542 -0.0222141 26.4338 0.353101 25.5363 0.623C24.7006 0.479984 23.8021 0.400135 22.8594 0.385369C21.0921 0.358024 19.5307 0.731698 18.1965 1.49969C17.4578 1.25741 16.2723 0.915869 14.9033 0.697927C11.6834 0.185201 9.0883 0.584717 7.19009 1.8854C4.89155 3.46022 3.82602 6.1964 4.02308 10.0179C4.08567 11.2312 4.78541 14.9229 5.88717 18.4239C6.52038 20.4362 7.19559 22.1073 7.89406 23.3912C8.88461 25.2117 9.9445 26.2838 11.1344 26.6688C11.8013 26.8843 13.013 27.0352 14.2874 26.0057C14.449 26.1954 14.6645 26.384 14.9505 26.5591C15.3138 26.7813 15.7579 26.9629 16.2016 27.0705C17.8002 27.4581 19.2977 27.3612 20.5752 26.8178C20.5831 27.0382 20.5892 27.2488 20.5942 27.4306C20.6027 27.7256 20.6112 28.0147 20.6223 28.2852C20.698 30.1138 20.8263 31.5356 21.2063 32.5304C21.2272 32.5851 21.2552 32.6685 21.2848 32.757C21.4744 33.32 21.7914 34.2626 22.598 35.0008C23.4332 35.7655 24.4435 36 25.3688 36C25.8328 36 26.2756 35.9409 26.664 35.8603C28.0482 35.5725 29.6204 35.1341 30.7577 33.5634C31.8329 32.0785 32.3556 29.8421 32.4502 26.3182C32.4625 26.2186 32.4737 26.1234 32.4846 26.0327L32.5071 25.8465L32.7605 25.8681L32.8257 25.8724C34.2356 25.9347 35.9596 25.6447 37.0184 25.1677C37.855 24.7911 40.536 23.4183 39.9047 21.5648Z" fill="#525257"/>
<path d="M37.4928 21.9252C33.3006 22.7641 33.0123 21.3873 33.0123 21.3873C37.4385 15.0168 39.2889 6.93037 37.6923 4.95124C33.3359 -0.447425 25.7951 2.10582 25.6693 2.17199L25.6288 2.1791C24.8005 2.0123 23.8737 1.91303 22.8318 1.89649C20.935 1.86641 19.4961 2.37886 18.4042 3.182C18.4042 3.182 4.95208 -2.19329 5.57781 9.94233C5.71088 12.524 9.39283 29.4769 13.7844 24.3564C15.3895 22.4839 16.9406 20.9007 16.9406 20.9007C17.7108 21.3971 18.633 21.6503 19.5997 21.5594L19.6748 21.4975C19.6514 21.73 19.6621 21.9574 19.7048 22.2266C18.5735 23.4526 18.906 23.6678 16.6444 24.1194C14.3559 24.5769 15.7002 25.3913 16.578 25.6043C17.6421 25.8623 20.1039 26.2279 21.7673 23.9693L21.701 24.227C22.1442 24.5714 22.4554 26.467 22.4033 28.1856C22.3511 29.9039 22.3163 31.0838 22.6655 32.0053C23.0149 32.9268 23.363 35.0003 26.3361 34.3824C28.8203 33.866 30.1078 32.5279 30.2869 30.2957C30.4139 28.7088 30.7016 28.9434 30.7197 27.5246L30.9504 26.853C31.2164 24.7019 30.9927 24.0079 32.5232 24.3307L32.8953 24.3624C34.0216 24.412 35.4961 24.1866 36.3614 23.7965C38.2247 22.9578 39.3298 21.5573 37.4925 21.9252H37.4928Z" fill="#6F6F76"/>
<path d="M19.1916 11.0968C18.8138 11.0458 18.4717 11.093 18.2986 11.2202C18.2013 11.2917 18.1711 11.3745 18.163 11.4315C18.1413 11.5826 18.2504 11.7497 18.3175 11.8358C18.5072 12.0798 18.7843 12.2474 19.0586 12.2843C19.0984 12.2898 19.138 12.2922 19.1773 12.2922C19.6348 12.2922 20.0507 11.9467 20.0874 11.6917C20.1332 11.3723 19.6552 11.1595 19.1916 11.097V11.0968ZM31.7068 11.107C31.6707 10.8566 31.2115 10.7852 30.7756 10.844C30.3403 10.9028 29.9183 11.0934 29.9535 11.3443C29.9817 11.5394 30.345 11.8725 30.7749 11.8725C30.8113 11.8725 30.8479 11.8702 30.8849 11.8651C31.1719 11.8265 31.3825 11.6498 31.4826 11.5479C31.6348 11.3926 31.723 11.2195 31.7068 11.107Z" fill="#B3B3B3"/>
<path d="M38.8901 21.8299C38.7302 21.3611 38.2157 21.2103 37.3609 21.3815C34.8229 21.8895 33.9139 21.5376 33.6155 21.3244C35.5883 18.4094 37.2112 14.8857 38.0867 11.5981C38.5014 10.0407 38.7305 8.59445 38.7493 7.41559C38.77 6.12174 38.5427 5.17093 38.0742 4.59012C36.185 2.24866 33.4122 0.992687 30.0559 0.958232C27.7485 0.933074 25.799 1.50582 25.4211 1.66689C24.6252 1.47492 23.7575 1.35706 22.813 1.34202C21.0808 1.31482 19.5835 1.71707 18.3439 2.53702C17.8054 2.34259 16.4138 1.87923 14.7119 1.61329C11.7698 1.15389 9.43175 1.502 7.76331 2.64845C5.77249 4.01655 4.85341 6.46205 5.03145 9.91687C5.09136 11.0792 5.77418 14.6549 6.8517 18.0792C8.27007 22.5863 9.81193 25.1378 11.4341 25.6627C11.624 25.724 11.8429 25.767 12.0844 25.767C12.6762 25.767 13.4017 25.5083 14.1566 24.628C15.0773 23.5567 16.0297 22.5114 17.0126 21.4934C17.6503 21.8254 18.3509 22.0108 19.0674 22.0294C19.0688 22.0476 19.0707 22.0658 19.0724 22.0838C18.949 22.2265 18.8282 22.3712 18.7101 22.5179C18.2136 23.1292 18.1103 23.2565 16.5122 23.5757C16.0576 23.6667 14.8502 23.908 14.8325 24.7289C14.8133 25.6259 16.2597 26.0026 16.4245 26.0425C16.9988 26.1819 17.5521 26.2507 18.0797 26.2507C19.3629 26.2507 20.4921 25.8416 21.3946 25.0501C21.3668 28.2476 21.5043 31.3984 21.9001 32.3583C22.2243 33.1442 23.0162 35.0648 25.5178 35.0647C25.8848 35.0647 26.2888 35.0233 26.7333 34.9309C29.3441 34.388 30.4778 33.2688 30.9164 30.8013C31.1511 29.4825 31.5538 26.3336 31.7432 24.6444C32.143 24.7655 32.6577 24.8208 33.2141 24.8207C34.3745 24.8207 35.7135 24.5816 36.5532 24.2035C37.4965 23.7786 39.1988 22.7359 38.8901 21.8299ZM32.6728 10.4159C32.6642 10.9146 32.5934 11.3673 32.5184 11.8398C32.4376 12.348 32.3542 12.8735 32.3332 13.5113C32.3125 14.132 32.3924 14.7774 32.4696 15.4016C32.6258 16.6622 32.7861 17.96 32.1657 19.2406C32.0627 19.0635 31.9709 18.8804 31.8908 18.6924C31.8137 18.5111 31.6463 18.2199 31.4144 17.8168C30.5124 16.2478 28.4 12.5733 29.4814 11.074C29.8035 10.6277 30.6209 10.1689 32.6728 10.4159ZM30.1856 1.96796C33.1929 2.03236 35.5718 3.12358 37.256 5.21113C38.5478 6.81235 37.1254 14.0981 33.0074 20.3836C32.966 20.3325 32.9244 20.2816 32.8825 20.2309L32.8304 20.1677C33.8945 18.4631 33.6864 16.7766 33.5012 15.2814C33.4251 14.6677 33.3532 14.0881 33.3715 13.5437C33.3904 12.9667 33.4691 12.4718 33.5452 11.9932C33.6386 11.4035 33.7338 10.7933 33.7076 10.074C33.7272 9.9985 33.7351 9.90935 33.7248 9.80353C33.6578 9.11374 32.8459 7.04929 31.191 5.18078C30.2857 4.15874 28.9656 3.01502 27.1631 2.2436C27.9384 2.08774 28.9986 1.94239 30.1856 1.96796ZM13.3577 23.9838C12.526 24.9537 11.9517 24.7678 11.7629 24.7068C10.5322 24.3086 9.10429 21.7858 7.84535 17.7851C6.75599 14.3235 6.1194 10.8425 6.06894 9.86642C5.90993 6.77939 6.68142 4.62799 8.36212 3.47183C11.0974 1.59046 15.5944 2.71654 17.4014 3.28765C17.3754 3.31254 17.3484 3.33578 17.3227 3.36108C14.3574 6.26571 14.4278 11.2284 14.4351 11.5318C14.4348 11.6488 14.445 11.8145 14.4588 12.0424C14.5098 12.8772 14.6048 14.4307 14.3511 16.1899C14.1154 17.8248 14.635 19.4249 15.7764 20.5801C15.8935 20.6984 16.0166 20.811 16.1453 20.9175C15.6372 21.4453 14.5331 22.6124 13.3577 23.9838ZM16.5264 19.8829C15.6065 18.9518 15.1887 17.6567 15.38 16.3294C15.6478 14.471 15.549 12.8524 15.4958 11.9828C15.4884 11.8611 15.4817 11.7545 15.4779 11.6704C15.9111 11.2978 17.9186 10.2546 19.3502 10.5728C20.0034 10.7178 20.4015 11.1493 20.567 11.8915C21.4235 15.7339 20.6803 17.3354 20.0832 18.6224C19.9601 18.8875 19.8438 19.1382 19.7446 19.3974L19.6676 19.5978C19.4728 20.1046 19.2916 20.5757 19.1792 21.0231C18.2012 21.0204 17.2498 20.6151 16.5264 19.8828V19.8829ZM16.6765 25.0649C16.391 24.9957 16.1341 24.8755 15.9834 24.7758C16.1093 24.7184 16.3333 24.6402 16.7218 24.5625C18.6018 24.1872 18.8922 23.9223 19.5263 23.1414C19.6716 22.9623 19.8364 22.7594 20.0646 22.5122L20.0649 22.5119C20.4047 22.1427 20.5602 22.2054 20.8421 22.3189C21.0707 22.4105 21.2932 22.6883 21.3834 22.994C21.4262 23.1384 21.4741 23.4124 21.3172 23.6257C19.9927 25.4245 18.0626 25.4014 16.6765 25.0649ZM26.5156 33.9456C24.2157 34.4236 23.4013 33.2853 22.8647 31.9841C22.5183 31.1441 22.3481 27.3559 22.4689 23.1724C22.4704 23.1168 22.4622 23.0631 22.4464 23.0125C22.4323 22.9126 22.4108 22.8138 22.3822 22.7169C22.2026 22.1082 21.7649 21.599 21.2398 21.3879C21.0312 21.3041 20.6483 21.1502 20.1882 21.2644C20.2863 20.8723 20.4565 20.4294 20.641 19.9499L20.7184 19.7482C20.8055 19.5209 20.9149 19.2853 21.0305 19.0359C21.6554 17.6894 22.5112 15.8451 21.5823 11.6786C21.2344 10.118 20.0726 9.35588 18.3114 9.53294C17.2556 9.63891 16.2896 10.0521 15.8078 10.289C15.7042 10.3399 15.6095 10.3891 15.5209 10.437C15.6554 8.86462 16.1634 5.92608 18.0639 4.06686C19.2605 2.89648 20.8541 2.31839 22.7958 2.34957C26.6215 2.41027 29.0748 4.31461 30.4594 5.90161C31.6525 7.26901 32.2985 8.64654 32.5563 9.38952C30.6174 9.19824 29.2987 9.56945 28.6302 10.4965C27.1759 12.5129 29.4258 16.4266 30.5071 18.3076C30.7055 18.6522 30.8766 18.9502 30.9305 19.0768C31.2826 19.9045 31.7385 20.4572 32.0713 20.8605C32.1733 20.9841 32.2723 21.104 32.3476 21.2088C31.7603 21.373 30.7055 21.7524 30.8016 23.6489C30.7241 24.6006 30.1728 29.056 29.8927 30.6301C29.5229 32.7097 28.734 33.4843 26.5156 33.9457V33.9456ZM36.1158 23.2896C35.5153 23.5599 34.5104 23.7627 33.5557 23.8063C32.5013 23.8542 31.9646 23.6917 31.8383 23.5918C31.7791 22.4099 32.2325 22.2865 32.7125 22.1557C32.7879 22.1352 32.8615 22.1151 32.9326 22.0911C32.9767 22.1259 33.025 22.1605 33.078 22.1944C33.9255 22.737 35.437 22.7955 37.5711 22.3682L37.5945 22.3637C37.3066 22.6247 36.8141 22.975 36.1158 23.2896Z" fill="#B3B3B3"/>
<path d="M62 0H98V36H62V0Z" fill="#6F6F76"/>
<path d="M79.2859 13.3313H81.0128V16.3125H76.3441V29.5763L76.2203 29.61C76.0516 29.655 73.8297 29.655 73.3516 29.6044L72.9691 29.5706V16.3125H68.3003V13.3313L69.7797 13.3144C70.5897 13.3031 72.6709 13.3031 74.4034 13.3144C76.1359 13.3256 78.3297 13.3313 79.2859 13.3313ZM92.4653 28.17C91.7791 28.8956 91.0422 29.3006 89.816 29.6325C89.2816 29.7788 89.1916 29.7844 87.9878 29.7788C86.7841 29.7731 86.6884 29.7731 86.1034 29.6213C84.5903 29.2331 83.3697 28.4738 82.5372 27.3994C82.3009 27.0956 81.9128 26.4656 81.9128 26.3869C81.9128 26.3644 81.9691 26.3138 82.0422 26.28C82.1153 26.2463 82.2672 26.1506 82.3909 26.0775C82.5147 26.0044 82.7397 25.8694 82.8916 25.7906C83.0434 25.7119 83.4822 25.4531 83.8647 25.2225C84.2472 24.9919 84.5959 24.8063 84.6353 24.8063C84.6747 24.8063 84.7478 24.885 84.8041 24.9806C85.1416 25.5488 85.9291 26.2744 86.4859 26.5219C86.8291 26.6681 87.5884 26.8313 87.9541 26.8313C88.2916 26.8313 88.9103 26.685 89.2422 26.5331C89.5966 26.37 89.7766 26.2069 89.9903 25.8806C90.1366 25.65 90.1535 25.5881 90.1478 25.1494C90.1478 24.7444 90.1253 24.6319 90.0128 24.4463C89.6978 23.9288 89.2703 23.6588 87.5378 22.8938C85.7491 22.1006 84.9447 21.6281 84.2922 20.9925C83.8084 20.52 83.7128 20.3906 83.4091 19.8C83.0153 19.0406 82.9647 18.7931 82.9591 17.6625C82.9534 16.8694 82.9703 16.6106 83.0547 16.3406C83.1728 15.9356 83.5553 15.1538 83.7297 14.9569C84.0897 14.535 84.2191 14.4056 84.4722 14.1975C85.2372 13.5675 86.4297 13.1513 87.5716 13.1119C87.701 13.1119 88.1285 13.1344 88.5278 13.1625C89.6753 13.2581 90.4572 13.5394 91.211 14.1413C91.7791 14.5913 92.6397 15.6488 92.5553 15.7894C92.4991 15.8738 90.2547 17.37 90.1085 17.415C90.0185 17.4431 89.9566 17.4094 89.8328 17.2631C89.0678 16.3463 88.7585 16.1494 88.016 16.1044C87.4872 16.0706 87.2059 16.1325 86.8516 16.3688C86.4803 16.6163 86.3003 16.9931 86.3003 17.5163C86.3059 18.2813 86.5984 18.6413 87.6785 19.1756C88.376 19.5188 88.9722 19.8 89.0172 19.8C89.0847 19.8 90.5303 20.52 90.9072 20.745C92.6622 21.7744 93.3766 22.8319 93.5622 24.6544C93.6972 26.0269 93.3091 27.2813 92.4653 28.17Z" fill="#B3B3B3"/>
<path d="M159.606 13.5898C159.497 13.4818 158.484 12.5227 156.349 12.5227C155.785 12.5258 155.222 12.5864 154.666 12.7041C154.252 9.15057 151.91 7.41804 151.805 7.34031L151.231 6.92551L150.854 7.60817C150.382 8.5252 150.037 9.5361 149.835 10.5979C149.452 12.6264 149.685 14.5316 150.506 16.1605C149.514 16.8539 147.923 17.0245 147.601 17.0396H121.252C120.564 17.0408 120.005 17.7384 120.002 18.6015C119.971 21.4966 120.362 24.3744 121.156 27.0933C122.063 30.0787 123.414 32.2778 125.17 33.6236C127.139 35.1357 130.338 35.9998 133.963 35.9998C135.601 36.0063 137.236 35.8204 138.846 35.4447C141.084 34.9292 143.238 33.9479 145.219 32.5413C146.85 31.3561 148.319 29.8484 149.568 28.0761C151.655 25.1123 152.899 21.8115 153.824 18.878H154.192C156.478 18.878 157.883 17.7309 158.658 16.7696C159.173 16.1565 159.575 15.4097 159.836 14.5813L160 13.9808L159.606 13.5898Z" fill="#6F6F76"/>
<path d="M123.694 16.0719H127.225C127.395 16.0719 127.533 15.8988 127.533 15.6853V11.7407C127.534 11.5271 127.397 11.353 127.227 11.3518C127.226 11.3518 127.225 11.3518 127.225 11.3518H123.694C123.524 11.3518 123.386 11.525 123.386 11.7385V11.7407V15.6852C123.386 15.8988 123.524 16.0719 123.694 16.0719Z" fill="#6F6F76"/>
<path d="M128.56 16.0719H132.091C132.261 16.0719 132.399 15.8988 132.399 15.6853V11.7407C132.4 11.5271 132.263 11.353 132.093 11.3518C132.092 11.3518 132.091 11.3518 132.091 11.3518H128.56C128.389 11.3518 128.25 11.5259 128.25 11.7407V15.6852C128.251 15.8991 128.39 16.0719 128.56 16.0719Z" fill="#6F6F76"/>
<path d="M133.5 16.0719H137.031C137.201 16.0719 137.339 15.8988 137.339 15.6853V11.7407C137.34 11.5271 137.203 11.353 137.032 11.3518C137.032 11.3518 137.031 11.3518 137.031 11.3518H133.5C133.329 11.3518 133.191 11.525 133.191 11.7385V11.7407V15.6852C133.191 15.8988 133.33 16.0719 133.5 16.0719Z" fill="#6F6F76"/>
<path d="M138.381 16.0719H141.912C142.082 16.0719 142.221 15.8992 142.222 15.6853V11.7407C142.222 11.5259 142.083 11.3518 141.912 11.3518H138.381C138.211 11.3518 138.073 11.525 138.073 11.7385V11.7407V15.6852C138.073 15.8988 138.211 16.0719 138.381 16.0719Z" fill="#6F6F76"/>
<path d="M128.56 10.3971H132.091C132.261 10.3959 132.399 10.2221 132.399 10.0083V6.06372C132.399 5.85013 132.261 5.67706 132.091 5.67706H128.56C128.39 5.67706 128.251 5.84978 128.25 6.06372V10.0083C128.251 10.2225 128.389 10.3959 128.56 10.3971Z" fill="#6F6F76"/>
<path d="M133.5 10.3971H137.031C137.201 10.3959 137.339 10.2221 137.339 10.0083V6.06372C137.339 5.85013 137.201 5.67706 137.031 5.67706H133.5C133.329 5.67706 133.191 5.8502 133.191 6.06372V10.0083C133.191 10.2221 133.329 10.3959 133.5 10.3971Z" fill="#6F6F76"/>
<path d="M138.381 10.3971H141.912C142.083 10.3959 142.221 10.2225 142.222 10.0083V6.06372C142.221 5.84978 142.082 5.67706 141.912 5.67706H138.381C138.211 5.67706 138.073 5.8502 138.073 6.06372V10.0083C138.073 10.2221 138.211 10.3959 138.381 10.3971Z" fill="#6F6F76"/>
<path d="M138.381 4.72009H141.912C142.082 4.72009 142.221 4.5473 142.222 4.33344V0.386653C142.221 0.17272 142.082 0 141.912 0H138.381C138.211 0 138.073 0.173071 138.073 0.386653V4.33336C138.073 4.54695 138.211 4.72009 138.381 4.72009Z" fill="#6F6F76"/>
<path d="M143.305 16.0719H146.836C147.007 16.0719 147.145 15.8992 147.146 15.6853V11.7407C147.146 11.5259 147.007 11.3518 146.836 11.3518H143.305C143.135 11.3518 142.997 11.525 142.997 11.7385V11.7407V15.6852C142.997 15.8988 143.135 16.0719 143.305 16.0719Z" fill="#6F6F76"/>
<path d="M245 21.1739C246.853 21.1739 248.355 19.7529 248.355 18C248.355 16.2472 246.853 14.8262 245 14.8262C243.147 14.8262 241.646 16.2472 241.646 18C241.646 19.7529 243.147 21.1739 245 21.1739Z" fill="#525257"/>
<path d="M245 24.5025C254.941 24.5025 263 21.5912 263 18C263 14.4088 254.941 11.4975 245 11.4975C235.059 11.4975 227 14.4088 227 18C227 21.5912 235.059 24.5025 245 24.5025Z" stroke="#6F6F76" stroke-width="2"/>
<path d="M239.048 21.2513C244.019 29.3968 250.713 34.5444 254 32.7487C257.287 30.9531 255.923 22.8942 250.952 14.7487C245.982 6.60324 239.287 1.45564 236 3.25126C232.713 5.04687 234.078 13.1057 239.048 21.2513Z" stroke="#6F6F76" stroke-width="2"/>
<path d="M239.048 14.7487C234.078 22.8942 232.713 30.9531 236 32.7487C239.287 34.5444 245.982 29.3968 250.952 21.2512C255.923 13.1057 257.287 5.04687 254 3.25125C250.713 1.45563 244.019 6.60323 239.048 14.7487Z" stroke="#6F6F76" stroke-width="2"/>
<path d="M174.019 16.525C173.941 16.525 173.921 16.486 173.96 16.4276L174.369 15.9018C174.408 15.8433 174.506 15.8044 174.583 15.8044H181.536C181.614 15.8044 181.634 15.8628 181.595 15.9212L181.264 16.4276C181.225 16.486 181.127 16.5444 181.069 16.5444L174.019 16.525ZM171.078 18.3167C171 18.3167 170.981 18.2778 171.019 18.2193L171.428 17.6935C171.467 17.6351 171.565 17.5961 171.643 17.5961H180.523C180.601 17.5961 180.64 17.6545 180.621 17.713L180.465 18.1804C180.446 18.2583 180.368 18.2972 180.29 18.2972L171.078 18.3167ZM175.791 20.1084C175.713 20.1084 175.694 20.05 175.733 19.9916L176.005 19.5047C176.044 19.4463 176.122 19.3879 176.2 19.3879H180.095C180.173 19.3879 180.212 19.4463 180.212 19.5242L180.173 19.9916C180.173 20.0695 180.095 20.1279 180.037 20.1279L175.791 20.1084ZM196.006 16.1744C194.779 16.486 193.942 16.7197 192.735 17.0313C192.442 17.1092 192.423 17.1287 192.17 16.8366C191.878 16.5055 191.663 16.2913 191.254 16.0965C190.027 15.4928 188.839 15.6681 187.729 16.3886C186.405 17.2456 185.723 18.5115 185.743 20.089C185.762 21.647 186.833 22.9324 188.372 23.1466C189.696 23.3219 190.806 22.8545 191.683 21.8612C191.858 21.647 192.014 21.4133 192.209 21.1406H188.45C188.041 21.1406 187.944 20.8875 188.08 20.5564C188.333 19.9526 188.8 18.9399 189.073 18.4336C189.132 18.3167 189.268 18.122 189.56 18.122H196.649C196.61 18.6478 196.61 19.1736 196.532 19.6995C196.318 21.1017 195.792 22.3871 194.935 23.5166C193.533 25.3668 191.702 26.5158 189.385 26.8274C187.476 27.0806 185.704 26.7106 184.146 25.5421C182.705 24.4514 181.887 23.0103 181.673 21.2185C181.419 19.0957 182.043 17.1871 183.328 15.5123C184.711 13.701 186.541 12.552 188.781 12.143C190.612 11.8119 192.364 12.0262 193.942 13.0973C194.974 13.7789 195.714 14.7138 196.201 15.8433C196.318 16.0186 196.24 16.116 196.006 16.1744Z" fill="#6F6F76"/>
<path d="M202.452 26.9443C200.68 26.9053 199.064 26.399 197.7 25.2305C196.551 24.2372 195.831 22.9713 195.597 21.4717C195.247 19.271 195.85 17.3235 197.175 15.5901C198.596 13.7205 200.31 12.7467 202.628 12.3378C204.614 11.9872 206.484 12.182 208.178 13.331C209.717 14.3827 210.671 15.8044 210.924 17.674C211.255 20.3032 210.496 22.4455 208.685 24.2762C207.399 25.581 205.822 26.399 204.01 26.769C203.485 26.8664 202.959 26.8859 202.452 26.9443ZM207.088 19.0762C207.068 18.8231 207.068 18.6283 207.029 18.4335C206.679 16.5055 204.906 15.4149 203.056 15.8433C201.245 16.2523 200.076 17.4014 199.648 19.232C199.297 20.7511 200.037 22.2897 201.44 22.9129C202.511 23.3803 203.582 23.3219 204.614 22.796C206.153 21.9975 206.99 20.7511 207.088 19.0762Z" fill="#6F6F76"/>
<path d="M12.6812 79.0745C12.6812 79.8154 12.741 80.416 12.8458 80.8565C12.9655 81.297 13.1152 81.7775 13.3247 82.2981C13.3996 82.4583 13.4295 82.6185 13.4295 82.7586C13.4295 82.9588 13.3397 83.1591 13.1451 83.3593L12.2022 84.2002C12.0675 84.3204 11.9328 84.3804 11.8131 84.3804C11.6634 84.3804 11.5138 84.2803 11.3641 84.1001C11.1546 83.7998 10.975 83.4794 10.8253 83.1591C10.6756 82.8187 10.526 82.4383 10.3613 81.9778C9.19396 83.8198 7.72724 84.7408 5.96118 84.7408C4.70399 84.7408 3.70124 84.2603 2.96788 83.2992C2.23451 82.3382 1.86035 81.0567 1.86035 79.455C1.86035 77.7531 2.30935 76.3715 3.22231 75.3304C4.13527 74.2892 5.34756 73.7686 6.88911 73.7686C7.39797 73.7686 7.9218 73.8287 8.47556 73.9288C9.02932 74.0289 9.59805 74.1891 10.1967 74.3693V72.9077C10.1967 71.386 9.95725 70.3248 9.49329 69.7041C9.01436 69.0834 8.20616 68.7831 7.05374 68.7831C6.52991 68.7831 5.99112 68.8632 5.43735 69.0434C4.88359 69.2236 4.3448 69.4438 3.82097 69.7241C3.5815 69.8643 3.40191 69.9444 3.29714 69.9844C3.19237 70.0245 3.11754 70.0445 3.05767 70.0445C2.84814 70.0445 2.74338 69.8443 2.74338 69.4238V68.4427C2.74338 68.1224 2.77331 67.8821 2.84814 67.7419C2.92298 67.6018 3.05767 67.4616 3.26721 67.3215C3.79104 66.9611 4.41963 66.6607 5.15299 66.4205C5.88635 66.1602 6.66461 66.04 7.48777 66.04C9.26879 66.04 10.5709 66.5806 11.409 67.6618C12.2322 68.743 12.6512 70.3849 12.6512 72.5873V79.0745H12.6812ZM6.60474 82.1179C7.09864 82.1179 7.6075 81.9978 8.1463 81.7575C8.68509 81.5172 9.16402 81.0768 9.56812 80.4761C9.80758 80.0957 9.98718 79.6752 10.077 79.1947C10.1668 78.7141 10.2266 78.1335 10.2266 77.4527V76.6118C9.79262 76.4716 9.32865 76.3515 8.84973 76.2714C8.3708 76.1913 7.90683 76.1513 7.44287 76.1513C6.44011 76.1513 5.70675 76.4116 5.21286 76.9522C4.71896 77.4928 4.4795 78.2536 4.4795 79.2547C4.4795 80.1958 4.65909 80.8966 5.03326 81.3771C5.39245 81.8776 5.91628 82.1179 6.60474 82.1179ZM18.6229 84.2803C18.3535 84.2803 18.1739 84.2202 18.0541 84.0801C17.9344 83.96 17.8296 83.6796 17.7399 83.2992L14.2227 67.822C14.1329 67.4216 14.088 67.1613 14.088 67.0211C14.088 66.7008 14.2077 66.5206 14.4472 66.5206H15.9139C16.1983 66.5206 16.3929 66.5806 16.4976 66.7208C16.6174 66.8409 16.7072 67.1212 16.797 67.5017L19.3113 80.7564L21.6461 67.5017C21.7209 67.1012 21.8107 66.8409 21.9305 66.7208C22.0502 66.6007 22.2597 66.5206 22.5291 66.5206H23.7265C24.0108 66.5206 24.2054 66.5806 24.3251 66.7208C24.4449 66.8409 24.5496 67.1212 24.6095 67.5017L26.9742 80.9166L29.5634 67.5017C29.6532 67.1012 29.758 66.8409 29.8627 66.7208C29.9825 66.6007 30.177 66.5206 30.4464 66.5206H31.8383C32.0778 66.5206 32.2125 66.6808 32.2125 67.0211C32.2125 67.1212 32.1975 67.2214 32.1826 67.3415C32.1676 67.4616 32.1377 67.6218 32.0778 67.842L28.4709 83.3192C28.3811 83.7197 28.2763 83.98 28.1566 84.1001C28.0368 84.2202 27.8423 84.3003 27.5878 84.3003H26.3007C26.0163 84.3003 25.8218 84.2403 25.702 84.1001C25.5823 83.96 25.4776 83.6997 25.4177 83.2992L23.0979 70.3849L20.793 83.2792C20.7182 83.6796 20.6284 83.9399 20.5087 84.0801C20.3889 84.2202 20.1794 84.2803 19.91 84.2803H18.6229ZM37.8549 84.8209C37.0766 84.8209 36.2984 84.7008 35.55 84.4605C34.8017 84.2202 34.218 83.96 33.8289 83.6596C33.5894 83.4794 33.4248 83.2792 33.3649 83.099C33.3051 82.9188 33.2751 82.7186 33.2751 82.5384V81.5172C33.2751 81.0968 33.3949 80.8966 33.6193 80.8966C33.7091 80.8966 33.7989 80.9166 33.8887 80.9566C33.9785 80.9967 34.1132 81.0768 34.2629 81.1568C34.7718 81.4572 35.3255 81.6974 35.9092 81.8576C36.5079 82.0178 37.0916 82.0979 37.6902 82.0979C38.6331 82.0979 39.3665 81.8776 39.8754 81.4372C40.3842 80.9967 40.6536 80.356 40.6536 79.535C40.6536 78.9744 40.5189 78.5139 40.2495 78.1335C39.9801 77.7531 39.4713 77.4127 38.7379 77.0923L36.5678 76.1913C35.4752 75.7308 34.667 75.0501 34.1731 74.1491C33.6792 73.2681 33.4248 72.287 33.4248 71.2458C33.4248 70.4049 33.5595 69.6641 33.8289 69.0234C34.0983 68.3826 34.4575 67.822 34.9065 67.3815C35.3555 66.921 35.8643 66.5806 36.463 66.3404C37.0617 66.1001 37.6902 66 38.3488 66C38.678 66 39.0223 66.02 39.3515 66.0801C39.6958 66.1402 40.0101 66.2202 40.3244 66.3003C40.6237 66.4004 40.9081 66.5006 41.1774 66.6207C41.4468 66.7408 41.6564 66.861 41.806 66.9811C42.0156 67.1413 42.1652 67.3014 42.255 67.4816C42.3448 67.6418 42.3897 67.8621 42.3897 68.1424V69.0834C42.3897 69.5039 42.27 69.7241 42.0455 69.7241C41.9258 69.7241 41.7312 69.644 41.4768 69.4839C40.6237 68.9633 39.6658 68.703 38.6032 68.703C37.7501 68.703 37.0766 68.8832 36.6127 69.2636C36.1487 69.644 35.9092 70.2247 35.9092 71.0456C35.9092 71.6062 36.0589 72.0868 36.3582 72.4672C36.6576 72.8476 37.2113 73.228 38.0045 73.5684L40.1298 74.4694C41.2074 74.9299 41.9856 75.5706 42.4496 76.3915C42.9136 77.2125 43.1381 78.1535 43.1381 79.1947C43.1381 80.0556 43.0034 80.8365 42.7489 81.5172C42.4795 82.198 42.1203 82.7987 41.6564 83.2792C41.1924 83.7798 40.6387 84.1402 39.9951 84.4004C39.3216 84.6808 38.6182 84.8209 37.8549 84.8209Z" fill="#525257"/>
<path fill-rule="evenodd" clip-rule="evenodd" d="M40.6838 94.5517C35.7598 99.4171 28.6058 102 22.4546 102C13.8339 102 6.06623 97.7353 0.199357 90.6474C-0.264606 90.0868 0.154457 89.3259 0.708218 89.7664C7.05402 94.6919 14.8815 97.6752 22.9784 97.6752C28.4412 97.6752 34.4428 96.1535 39.9654 93.03C40.7886 92.5295 41.492 93.7508 40.6838 94.5517Z" fill="#6F6F76"/>
<path fill-rule="evenodd" clip-rule="evenodd" d="M42.7346 91.4282C42.106 90.347 38.5739 90.9076 36.9725 91.1679C36.4936 91.248 36.4187 90.6874 36.8528 90.2669C39.6665 87.624 44.2911 88.3848 44.8299 89.2658C45.3687 90.1668 44.6802 96.3537 42.0461 99.3169C41.642 99.7775 41.2529 99.5372 41.4325 98.9365C42.0312 96.9543 43.3632 92.4894 42.7346 91.4282Z" fill="#6F6F76"/>
<path d="M97.3211 82.3963L81.6032 66.6789C80.6985 65.7737 79.2304 65.7737 78.3246 66.6789L75.0607 69.9429L79.2011 74.0834C80.1633 73.7582 81.2666 73.9764 82.0336 74.7433C82.8042 75.5153 83.0208 76.628 82.6878 77.5933L86.678 81.5838C87.6434 81.2512 88.7573 81.4663 89.5284 82.2387C90.606 83.3159 90.606 85.0618 89.5284 86.1397C88.4505 87.2177 86.7046 87.2177 85.6262 86.1397C84.8156 85.3282 84.6154 84.1378 85.0257 83.1392L81.3045 79.4179L81.3041 89.2108C81.5738 89.3442 81.8202 89.5204 82.0336 89.7326C83.1112 90.8098 83.1112 92.5558 82.0336 93.6346C80.9557 94.712 79.209 94.712 78.1327 93.6346C77.0551 92.5558 77.0551 90.8099 78.1327 89.7327C78.3909 89.4743 78.6978 89.2697 79.0356 89.1307V79.2465C78.6973 79.1084 78.3902 78.9037 78.1327 78.6445C77.3162 77.8291 77.1199 76.6311 77.5382 75.6286L73.4567 71.5466L62.6792 82.3236C61.7736 83.2297 61.7736 84.698 62.6792 85.6033L78.3975 101.321C79.3024 102.226 80.7702 102.226 81.6763 101.321L97.321 85.6763C98.2263 84.7707 98.2263 83.3015 97.321 82.3963" fill="#6F6F76"/>
<path d="M145.008 66C137.006 66 132.005 70.0001 130.004 77.9995C133.005 73.9994 136.506 72.4999 140.507 73.4996C142.79 74.07 144.421 75.7263 146.228 77.559C149.17 80.5444 152.575 83.9996 160.013 83.9996C168.014 83.9996 173.016 79.9995 175.016 71.9994C172.016 75.9995 168.515 77.4997 164.513 76.5C162.231 75.9297 160.6 74.2733 158.793 72.4407C155.851 69.4552 152.445 66 145.008 66ZM130.004 83.9996C122.002 83.9996 117 87.9997 115 95.9999C118 91.9998 121.501 90.4996 125.503 91.5C127.785 92.0711 129.417 93.7267 131.223 95.5586C134.165 98.544 137.571 102 145.008 102C153.011 102 158.012 97.9999 160.013 89.9998C157.011 93.9998 153.51 95.5001 149.51 94.4997C147.227 93.93 145.595 92.273 143.789 90.441C140.847 87.4556 137.442 83.9996 130.004 83.9996Z" fill="#6F6F76"/>
<path d="M205.214 75.3893H215.776V76.2839H206.182V83.0165H215.204V83.9111H206.182V91.3029H215.886V92.1975H205.214V75.3893ZM216.722 75.3893H217.844L222.817 82.7811L227.9 75.3893L234.814 66L223.456 83.558L229.309 92.1975H228.142L222.817 84.3348L217.47 92.1975H216.326L222.223 83.558L216.722 75.3893ZM229.727 76.2839V75.3893H241.763V76.2839H236.218V92.1975H235.25V76.2839H229.727Z" fill="#6F6F76"/>
<path d="M192 75.3893H193.21L209.899 102L203.002 92.1975L193.012 76.6605L192.968 92.1975H192V75.3893Z" fill="#6F6F76"/>
<path d="M241.665 91.0329C241.865 91.0329 242.011 90.8696 242.011 90.6586C242.011 90.4475 241.865 90.2842 241.665 90.2842C241.467 90.2842 241.319 90.4475 241.319 90.6586C241.319 90.8696 241.467 91.0329 241.665 91.0329ZM242.616 90.048C242.616 90.6711 243.038 91.0782 243.653 91.0782C244.307 91.0782 244.703 90.6586 244.703 89.9299V87.3646H244.175V89.9274C244.175 90.3319 243.985 90.548 243.648 90.548C243.346 90.548 243.142 90.347 243.134 90.048H242.616ZM245.393 90.0153C245.43 90.6636 245.937 91.0782 246.69 91.0782C247.496 91.0782 248 90.6435 248 89.95C248 89.4048 247.712 89.1033 247.015 88.9299L246.641 88.8319C246.198 88.7213 246.019 88.5731 246.019 88.3143C246.019 87.9877 246.297 87.7741 246.714 87.7741C247.109 87.7741 247.383 87.9826 247.432 88.3168H247.945C247.915 87.7063 247.411 87.2766 246.721 87.2766C245.979 87.2766 245.485 87.7063 245.485 88.352C245.485 88.8847 245.765 89.2013 246.379 89.3545L246.817 89.4676C247.267 89.5807 247.465 89.7465 247.465 90.0229C247.465 90.3445 247.154 90.5782 246.73 90.5782C246.276 90.5782 245.96 90.3596 245.916 90.0153H245.393Z" fill="#6F6F76"/>
<path d="M20.8306 132.416C21.8416 131.863 23.1584 131.86 24.1685 132.416C29.2504 135.163 34.3338 137.905 39.4147 140.653C40.3704 141.168 41.0096 142.185 40.9999 143.239V159.763C41.007 160.86 40.3046 161.902 39.2964 162.405C34.2312 165.137 29.1687 167.871 24.1045 170.603C23.0726 171.167 21.7293 171.124 20.7297 170.513C19.2112 169.671 17.69 168.833 16.1714 167.992C15.861 167.815 15.5112 167.674 15.2921 167.386C15.4858 167.137 15.8321 167.106 16.1136 166.997C16.7474 166.804 17.3296 166.494 17.9119 166.194C18.0592 166.098 18.2389 166.135 18.3801 166.221C19.6786 166.933 20.9657 167.666 22.2685 168.371C22.5465 168.525 22.8279 168.321 23.0655 168.194C28.0359 165.507 33.0125 162.83 37.982 160.142C38.1662 160.058 38.268 159.871 38.253 159.678C38.2565 154.227 38.2539 148.775 38.2547 143.323C38.2758 143.105 38.1434 142.903 37.9364 142.814C32.8889 140.095 27.8439 137.372 22.7973 134.652C22.7098 134.594 22.6062 134.564 22.5001 134.563C22.394 134.563 22.2904 134.594 22.2028 134.651C17.1561 137.372 12.112 140.097 7.06534 142.816C6.85913 142.906 6.72074 143.104 6.74528 143.323C6.74615 148.775 6.74528 154.227 6.74528 159.679C6.73653 159.773 6.75814 159.867 6.80722 159.949C6.85629 160.031 6.93046 160.097 7.01974 160.137C8.36647 160.868 9.71494 161.593 11.0625 162.321C11.8217 162.712 12.7539 162.944 13.5903 162.645C14.3284 162.392 14.8458 161.671 14.8318 160.922C14.8387 155.502 14.8283 150.082 14.837 144.664C14.8185 144.423 15.0571 144.224 15.3017 144.247C15.9488 144.243 16.5967 144.239 17.2438 144.249C17.5139 144.243 17.6998 144.502 17.6664 144.744C17.6637 150.198 17.6733 155.652 17.662 161.105C17.6637 162.559 17.0395 164.14 15.6339 164.851C13.9024 165.709 11.7622 165.527 10.0515 164.705C8.57064 163.998 7.1574 163.163 5.70278 162.406C4.69193 161.905 3.99301 160.86 4.00012 159.764V143.239C3.98952 142.164 4.65418 141.128 5.63961 140.62C10.7039 137.887 15.7672 135.151 20.8306 132.416Z" fill="#6F6F76"/>
<path d="M25.2486 143.863C27.4574 143.727 29.8219 143.782 31.8095 144.823C33.3483 145.621 34.2015 147.294 34.2286 148.93C34.1856 149.15 33.9446 149.272 33.7244 149.257C33.0836 149.256 32.4426 149.265 31.8018 149.253C31.5299 149.263 31.3719 149.023 31.3378 148.793C31.1537 148.011 30.7076 147.236 29.9376 146.858C28.7557 146.292 27.3853 146.321 26.0966 146.333C25.1557 146.38 24.144 146.458 23.3469 146.987C22.735 147.388 22.5491 148.198 22.7675 148.849C22.9734 149.317 23.5381 149.468 24.0002 149.607C26.662 150.273 29.4827 150.207 32.0937 151.083C33.1746 151.441 34.2321 152.135 34.6021 153.218C35.0861 154.669 34.874 156.403 33.7947 157.568C32.9195 158.526 31.6448 159.048 30.3734 159.331C28.6821 159.692 26.9269 159.701 25.2093 159.541C23.5942 159.365 21.9135 158.959 20.6667 157.907C19.6005 157.021 19.0797 155.641 19.1314 154.31C19.1438 154.085 19.3779 153.928 19.6031 153.947C20.2484 153.942 20.8938 153.94 21.5391 153.947C21.7969 153.93 21.988 154.143 22.0012 154.375C22.1203 155.121 22.4132 155.903 23.0928 156.345C24.4044 157.154 26.0501 157.099 27.5519 157.122C28.7961 157.069 30.1928 157.053 31.2081 156.266C31.7438 155.818 31.9026 155.067 31.7578 154.421C31.6009 153.876 31.0047 153.622 30.4927 153.456C27.865 152.661 25.0128 152.949 22.4105 152.05C21.3541 151.693 20.3325 151.018 19.9266 149.98C19.3603 148.511 19.6198 146.693 20.8122 145.568C21.9748 144.448 23.653 144.017 25.2486 143.863V143.863Z" fill="#6F6F76"/>
<path opacity="0.45" d="M89.9316 128L80.9505 141.43H63L71.9742 128H89.9316Z" fill="#6F6F76"/>
<path opacity="0.6" d="M80.9504 141.43H98.9058L89.9322 128H71.9741L80.9504 141.43Z" fill="#6F6F76"/>
<path opacity="0.8" d="M71.9742 154.854L80.9505 141.43L71.9742 128L63 141.43L71.9742 154.854Z" fill="#6F6F76"/>
<path opacity="0.45" d="M72.062 175L81.0431 161.57H98.9998L90.0187 175H72.062Z" fill="#6F6F76"/>
<path opacity="0.6" d="M81.0432 161.57H63.0879L72.0621 175H90.0188L81.0432 161.57Z" fill="#6F6F76"/>
<path opacity="0.8" d="M90.0186 148.145L81.043 161.57L90.0186 175L98.9997 161.57L90.0186 148.145Z" fill="#6F6F76"/>
<path d="M131.717 139.738C127.013 138.881 123.293 139.778 121.81 142.345C120.704 144.261 121.02 146.802 122.577 149.517C122.608 149.572 122.65 149.621 122.7 149.659C122.751 149.698 122.808 149.727 122.869 149.743C122.93 149.76 122.994 149.764 123.057 149.756C123.12 149.748 123.181 149.728 123.235 149.696C123.347 149.632 123.428 149.527 123.461 149.404C123.495 149.28 123.478 149.148 123.414 149.037C122.012 146.591 121.738 144.399 122.646 142.828C123.877 140.695 127.195 139.895 131.544 140.687C131.623 140.703 131.704 140.698 131.78 140.675C131.857 140.651 131.926 140.608 131.982 140.551C132.038 140.494 132.079 140.424 132.101 140.347C132.124 140.27 132.126 140.188 132.109 140.11C132.088 140.016 132.04 139.93 131.97 139.864C131.9 139.797 131.812 139.754 131.717 139.738L131.717 139.738ZM125.023 152.818C126.925 154.909 129.397 156.869 132.215 158.497C139.039 162.437 146.304 163.49 149.885 161.048C149.988 160.975 150.058 160.865 150.08 160.74C150.103 160.616 150.075 160.488 150.004 160.383C149.933 160.279 149.824 160.206 149.7 160.182C149.576 160.157 149.447 160.182 149.341 160.251C146.137 162.436 139.236 161.436 132.698 157.661C129.963 156.082 127.57 154.184 125.737 152.169C125.673 152.097 125.589 152.045 125.496 152.021C125.403 151.997 125.304 152.001 125.213 152.033C125.138 152.06 125.07 152.105 125.016 152.165C124.963 152.224 124.925 152.296 124.906 152.374C124.887 152.452 124.888 152.533 124.908 152.611C124.929 152.688 124.968 152.76 125.023 152.818Z" fill="#6F6F76"/>
<path d="M148.743 152.231C151.823 148.592 152.899 144.932 151.42 142.37C150.331 140.484 148.029 139.489 144.971 139.449C144.843 139.448 144.72 139.497 144.628 139.586C144.537 139.675 144.484 139.797 144.482 139.925C144.481 140.021 144.508 140.114 144.56 140.194C144.612 140.274 144.686 140.337 144.774 140.375C144.832 140.4 144.895 140.413 144.958 140.414C147.709 140.45 149.692 141.307 150.584 142.852C151.812 144.981 150.854 148.245 148.006 151.608C147.964 151.656 147.932 151.712 147.911 151.773C147.891 151.834 147.883 151.898 147.887 151.962C147.892 152.026 147.909 152.088 147.939 152.146C147.968 152.203 148.008 152.253 148.057 152.295C148.106 152.336 148.163 152.367 148.224 152.387C148.285 152.406 148.349 152.413 148.413 152.407C148.477 152.401 148.539 152.382 148.596 152.352C148.652 152.322 148.702 152.281 148.743 152.231ZM140.826 139.898C138.041 140.495 135.077 141.662 132.23 143.306C125.185 147.373 120.589 153.37 121.228 157.719C121.235 157.783 121.256 157.844 121.288 157.9C121.32 157.956 121.363 158.005 121.414 158.043C121.465 158.082 121.524 158.111 121.586 158.127C121.648 158.143 121.713 158.146 121.776 158.137C121.84 158.127 121.901 158.106 121.956 158.072C122.011 158.039 122.059 157.995 122.096 157.943C122.134 157.891 122.161 157.832 122.176 157.77C122.191 157.707 122.193 157.642 122.182 157.579C121.615 153.718 125.971 148.033 132.712 144.141C135.474 142.547 138.344 141.417 141.029 140.842C141.15 140.811 141.255 140.735 141.321 140.629C141.387 140.522 141.409 140.395 141.383 140.272C141.357 140.15 141.284 140.043 141.18 139.973C141.076 139.903 140.949 139.876 140.826 139.898Z" fill="#6F6F76"/>
<path d="M129.413 160.734C131.024 165.231 133.659 168 136.622 168C138.782 168 140.782 166.527 142.341 163.934C142.376 163.88 142.399 163.819 142.41 163.755C142.421 163.692 142.42 163.626 142.405 163.563C142.387 163.485 142.349 163.412 142.295 163.351C142.241 163.291 142.173 163.245 142.097 163.218C142.02 163.191 141.939 163.183 141.859 163.196C141.779 163.209 141.703 163.242 141.639 163.291C141.588 163.331 141.546 163.38 141.514 163.437C140.113 165.767 138.392 167.036 136.622 167.036C134.161 167.036 131.811 164.566 130.322 160.409C130.301 160.348 130.269 160.292 130.227 160.243C130.184 160.195 130.133 160.156 130.075 160.128C130.017 160.1 129.954 160.083 129.89 160.08C129.826 160.076 129.762 160.086 129.702 160.108C129.641 160.129 129.586 160.163 129.538 160.206C129.491 160.25 129.453 160.302 129.426 160.36C129.399 160.419 129.384 160.482 129.382 160.546C129.38 160.61 129.391 160.674 129.414 160.734H129.413ZM144.125 159.854C144.959 157.19 145.406 154.116 145.406 150.913C145.406 142.921 142.609 136.032 138.625 134.263C138.509 134.214 138.378 134.212 138.26 134.259C138.143 134.305 138.048 134.396 137.997 134.512C137.946 134.627 137.942 134.758 137.986 134.876C138.03 134.995 138.119 135.091 138.234 135.144C141.787 136.723 144.442 143.261 144.442 150.913C144.442 154.02 144.008 156.997 143.204 159.566C143.184 159.627 143.175 159.691 143.18 159.756C143.184 159.82 143.202 159.882 143.231 159.94C143.275 160.026 143.344 160.097 143.429 160.144C143.514 160.191 143.611 160.211 143.707 160.202C143.804 160.192 143.895 160.154 143.97 160.092C144.044 160.03 144.098 159.947 144.125 159.854ZM153.21 159.382C153.212 159.077 153.154 158.775 153.039 158.494C152.924 158.212 152.754 157.956 152.539 157.74C152.325 157.524 152.07 157.352 151.789 157.235C151.507 157.118 151.206 157.058 150.902 157.058C150.597 157.058 150.296 157.118 150.015 157.235C149.734 157.352 149.478 157.524 149.264 157.74C149.049 157.956 148.879 158.212 148.764 158.494C148.649 158.776 148.591 159.077 148.593 159.382C148.597 159.992 148.842 160.575 149.274 161.005C149.707 161.435 150.292 161.676 150.902 161.676C151.511 161.676 152.097 161.435 152.529 161.005C152.962 160.575 153.207 159.992 153.21 159.382ZM152.246 159.382C152.245 159.738 152.104 160.08 151.852 160.332C151.6 160.584 151.258 160.726 150.902 160.726C150.636 160.726 150.376 160.647 150.155 160.499C149.934 160.352 149.762 160.142 149.66 159.896C149.558 159.651 149.532 159.38 149.584 159.12C149.636 158.859 149.764 158.62 149.951 158.432C150.139 158.244 150.379 158.116 150.639 158.064C150.9 158.012 151.17 158.039 151.416 158.14C151.661 158.242 151.871 158.414 152.019 158.635C152.167 158.856 152.246 159.116 152.246 159.382ZM122.309 161.691C122.612 161.691 122.912 161.631 123.192 161.515C123.473 161.399 123.727 161.229 123.942 161.014C124.156 160.8 124.326 160.546 124.442 160.265C124.558 159.985 124.618 159.685 124.618 159.382C124.618 159.079 124.558 158.778 124.442 158.498C124.326 158.218 124.156 157.963 123.942 157.749C123.727 157.535 123.473 157.365 123.192 157.249C122.912 157.133 122.612 157.073 122.309 157.073C122.006 157.073 121.705 157.133 121.425 157.249C121.145 157.365 120.891 157.535 120.676 157.749C120.462 157.964 120.292 158.218 120.176 158.498C120.06 158.778 120 159.079 120 159.382C120 159.685 120.06 159.985 120.176 160.265C120.292 160.545 120.462 160.8 120.676 161.014C120.891 161.229 121.145 161.399 121.425 161.515C121.705 161.631 122.006 161.691 122.309 161.691ZM122.309 160.726C121.952 160.726 121.61 160.584 121.358 160.332C121.106 160.08 120.965 159.738 120.965 159.381C120.965 159.025 121.106 158.683 121.358 158.431C121.61 158.179 121.952 158.037 122.309 158.037C122.665 158.037 123.007 158.179 123.259 158.431C123.511 158.683 123.653 159.025 123.653 159.381C123.653 159.738 123.511 160.08 123.259 160.332C123.007 160.584 122.665 160.726 122.309 160.726Z" fill="#6F6F76"/>
<path d="M136.622 136.618C137.079 136.618 137.525 136.482 137.905 136.229C138.285 135.975 138.58 135.614 138.755 135.192C138.9 134.842 138.957 134.46 138.92 134.083C138.882 133.705 138.752 133.342 138.542 133.026C138.331 132.711 138.045 132.452 137.71 132.273C137.376 132.094 137.002 132 136.622 132C136.165 132 135.719 132.135 135.339 132.389C134.959 132.643 134.664 133.003 134.489 133.425C134.314 133.847 134.268 134.311 134.357 134.759C134.447 135.207 134.666 135.619 134.989 135.941C135.204 136.156 135.458 136.326 135.738 136.442C136.019 136.558 136.319 136.618 136.622 136.618V136.618ZM136.622 135.653C136.356 135.653 136.096 135.574 135.875 135.426C135.654 135.279 135.482 135.069 135.38 134.823C135.313 134.66 135.278 134.485 135.278 134.309C135.278 134.132 135.313 133.958 135.38 133.795C135.448 133.631 135.547 133.483 135.672 133.358C135.796 133.234 135.945 133.135 136.108 133.067C136.291 132.991 136.49 132.957 136.688 132.967C136.887 132.976 137.08 133.03 137.256 133.124C137.431 133.217 137.583 133.349 137.702 133.508C137.82 133.668 137.902 133.852 137.94 134.047C137.979 134.242 137.974 134.443 137.926 134.636C137.878 134.828 137.787 135.008 137.661 135.162C137.535 135.315 137.376 135.439 137.197 135.524C137.017 135.609 136.821 135.653 136.622 135.653V135.653ZM136.975 152.547C136.542 152.64 136.089 152.558 135.717 152.318C135.439 152.139 135.22 151.881 135.089 151.578C134.957 151.275 134.919 150.939 134.978 150.614C135.037 150.289 135.191 149.989 135.421 149.751C135.651 149.514 135.946 149.35 136.269 149.28C136.699 149.194 137.146 149.281 137.513 149.521C137.88 149.762 138.137 150.137 138.23 150.566C138.323 150.995 138.243 151.443 138.008 151.813C137.773 152.183 137.402 152.447 136.975 152.546V152.547Z" fill="#6F6F76"/>
</svg>
