<svg width="79" height="72" viewBox="0 0 79 72" fill="none" xmlns="http://www.w3.org/2000/svg">
<path d="M26.3359 68C53.1217 68 67.7766 43.3748 67.7766 22.0263C67.7766 21.334 67.7627 20.6264 67.735 19.9341C70.5858 17.6469 73.046 14.8139 75 11.5682C72.345 12.8787 69.526 13.7346 66.6395 14.1066C69.6788 12.0855 71.9545 8.91044 73.0447 5.17001C70.1855 7.04986 67.0586 8.37594 63.7981 9.0914C61.6012 6.50179 58.6966 4.78717 55.5332 4.21261C52.3699 3.63806 49.124 4.23559 46.2975 5.9128C43.4709 7.59002 41.2212 10.2535 39.896 13.4915C38.5708 16.7295 38.244 20.3616 38.9661 23.8262C33.1765 23.5039 27.5126 21.8354 22.3416 18.9289C17.1706 16.0224 12.6078 11.9428 8.9492 6.95456C7.08968 10.5113 6.52067 14.72 7.3578 18.7254C8.19493 22.7309 10.3754 26.2324 13.456 28.5184C11.1433 28.4369 8.88118 27.7461 6.85664 26.5031V26.7031C6.85457 30.4356 8.01771 34.0537 10.1483 36.9424C12.279 39.8311 15.2456 41.8121 18.5439 42.5486C16.4015 43.1989 14.1529 43.2937 11.9722 42.8255C12.903 46.0355 14.7138 48.8431 17.1521 50.8563C19.5903 52.8696 22.5343 53.9882 25.5732 54.0559C20.4141 58.5517 14.0411 60.9903 7.48066 60.9787C6.31722 60.9767 5.15493 60.8976 4 60.7418C10.6647 65.4853 18.4175 68.0046 26.3359 68Z" fill="url(#paint0_linear_464_11)"/>
<g filter="url(#filter0_f_464_11)">
<path d="M26.3359 68C53.1217 68 67.7766 43.3748 67.7766 22.0263C67.7766 21.334 67.7627 20.6264 67.735 19.9341C70.5858 17.6469 73.046 14.8139 75 11.5682C72.345 12.8787 69.526 13.7346 66.6395 14.1066C69.6788 12.0855 71.9545 8.91044 73.0447 5.17001C70.1855 7.04986 67.0586 8.37594 63.7981 9.0914C61.6012 6.50179 58.6966 4.78717 55.5332 4.21261C52.3699 3.63806 49.124 4.23559 46.2975 5.9128C43.4709 7.59002 41.2212 10.2535 39.896 13.4915C38.5708 16.7295 38.244 20.3616 38.9661 23.8262C33.1765 23.5039 27.5126 21.8354 22.3416 18.9289C17.1706 16.0224 12.6078 11.9428 8.9492 6.95456C7.08968 10.5113 6.52067 14.72 7.3578 18.7254C8.19493 22.7309 10.3754 26.2324 13.456 28.5184C11.1433 28.4369 8.88118 27.7461 6.85664 26.5031V26.7031C6.85457 30.4356 8.01771 34.0537 10.1483 36.9424C12.279 39.8311 15.2456 41.8121 18.5439 42.5486C16.4015 43.1989 14.1529 43.2937 11.9722 42.8255C12.903 46.0355 14.7138 48.8431 17.1521 50.8563C19.5903 52.8696 22.5343 53.9882 25.5732 54.0559C20.4141 58.5517 14.0411 60.9903 7.48066 60.9787C6.31722 60.9767 5.15493 60.8976 4 60.7418C10.6647 65.4853 18.4175 68.0046 26.3359 68Z" fill="url(#paint1_linear_464_11)"/>
</g>
<defs>
<filter id="filter0_f_464_11" x="0" y="0" width="79" height="72" filterUnits="userSpaceOnUse" color-interpolation-filters="sRGB">
<feFlood flood-opacity="0" result="BackgroundImageFix"/>
<feBlend mode="normal" in="SourceGraphic" in2="BackgroundImageFix" result="shape"/>
<feGaussianBlur stdDeviation="2" result="effect1_foregroundBlur_464_11"/>
</filter>
<linearGradient id="paint0_linear_464_11" x1="4" y1="36" x2="75" y2="36" gradientUnits="userSpaceOnUse">
<stop stop-color="#99CCFF"/>
<stop offset="1" stop-color="#B3CCFF"/>
</linearGradient>
<linearGradient id="paint1_linear_464_11" x1="4" y1="36" x2="75" y2="36" gradientUnits="userSpaceOnUse">
<stop stop-color="#99CCFF"/>
<stop offset="1" stop-color="#B3CCFF"/>
</linearGradient>
</defs>
</svg>
